<svg xmlns="http://www.w3.org/2000/svg" width="20" height="20" viewBox="0 0 20 20"><defs><style>.a{fill:#fff;fill-rule:evenodd;}</style></defs><path class="a" d="M18.225,13.929a10,10,0,1,0,9.975,10,10,10,0,0,0-9.975-10ZM15.731,28.781H13.188V20.007h2.544Zm-1.2-9.314a1.131,1.131,0,0,1-1.147-1.176,1.161,1.161,0,0,1,1.147-1.177,1.238,1.238,0,0,1,1.2,1.177A1.172,1.172,0,0,1,14.534,19.468Zm9.925,9.314H21.966V23.34c0-.637-.2-1.078-.948-1.078a1.5,1.5,0,0,0-1.546,1.078v5.441H16.978V20.007h2.494v.833a4.346,4.346,0,0,1,2.494-.833c.8,0,2.494.49,2.494,3.431v5.343Z" transform="translate(-8.2 -13.929)"/></svg>