<svg xmlns="http://www.w3.org/2000/svg" width="20" height="20" viewBox="0 0 20 20"><defs><style>.a{fill:#fff;}</style></defs><path class="a" d="M10,0A10,10,0,1,0,20,10,10,10,0,0,0,10,0Zm4.566,7.8q.007.148.007.3a6.486,6.486,0,0,1-6.531,6.531h0a6.5,6.5,0,0,1-3.518-1.031,4.668,4.668,0,0,0,.547.032,4.606,4.606,0,0,0,2.851-.983,2.3,2.3,0,0,1-2.144-1.594,2.288,2.288,0,0,0,1.037-.039,2.3,2.3,0,0,1-1.841-2.25c0-.01,0-.02,0-.029a2.279,2.279,0,0,0,1.04.287A2.3,2.3,0,0,1,5.3,5.952a6.517,6.517,0,0,0,4.731,2.4,2.3,2.3,0,0,1,3.911-2.093A4.6,4.6,0,0,0,15.4,5.7a2.3,2.3,0,0,1-1.009,1.27,4.578,4.578,0,0,0,1.318-.361A4.665,4.665,0,0,1,14.566,7.8Zm0,0"/></svg>