<svg xmlns="http://www.w3.org/2000/svg" width="63.463" height="55" viewBox="0 0 63.463 55"><defs><style>.a{fill:#007fa3;}</style></defs><path class="a" d="M46.5,0A17.8,17.8,0,0,0,31.732,7.881,17.8,17.8,0,0,0,16.963,0C6.5,0,0,6.775,0,17.682c0,9.54,4.958,14.368,9.088,18.3,6.721,6.4,14.15,12.613,21.3,18.535a2.106,2.106,0,0,0,2.687,0C48.965,41.357,51.02,39.039,53.754,36.551c4.325-3.945,9.709-8.856,9.709-18.869C63.463,6.775,56.962,0,46.5,0ZM11.106,34.966a4.255,4.255,0,0,1,3.7-2.177h.264a4.068,4.068,0,0,0,3.977,2.1,4.125,4.125,0,0,0,3.958-2.1h.262c.043,0,.076.011.118.012a2.891,2.891,0,0,0,1.852,2.158,4.429,4.429,0,0,0,1.24,2.361,6.241,6.241,0,0,1,.959,1.218c.081.124.061,0,.061.693a6.354,6.354,0,0,0-5.26,5.68c-7.974-6.8-8.014-7.1-11.135-9.945Zm1.587-19.1a5.3,5.3,0,0,1,5.289-5.289H20.1a5.3,5.3,0,0,1,5.289,5.289s0,.479-.06,1.116a6.69,6.69,0,0,0-1.437-2.4,2.559,2.559,0,0,0-1.632-.74c-1.519-.116-5.137-.1-6.442,0a2.549,2.549,0,0,0-1.615.733,6.6,6.6,0,0,0-1.446,2.407c-.06-.637-.06-1.116-.06-1.116Zm.793,3.947A1.058,1.058,0,0,0,14.544,18.8a4.049,4.049,0,0,1,.681-2.115c.4-.566.49-.711.757-.734a60.6,60.6,0,0,1,6.107,0c.248.02.317.09.759.725a4.058,4.058,0,0,1,.688,2.123,1.058,1.058,0,0,0,1.058,1.016c.324,0,.793.549.793,1.41s-.468,1.406-.862,1.406a1.058,1.058,0,0,0-1.282.952,3.582,3.582,0,0,1-.88,2.278c-1.575,1.478-1.662,2.7-2.464,2.7h-1.72c-.774,0-.952-1.281-2.468-2.7a3.585,3.585,0,0,1-.875-2.274,1.12,1.12,0,0,0-1.351-.952c-.367,0-.793-.616-.793-1.411s.423-1.408.793-1.408ZM16.924,30.39c.71.352,1.153.281,2.975.281a2.75,2.75,0,0,0,1.256-.279v1.394c-.529,1.331-3.68,1.342-4.231-.008Zm35.03.97A6.321,6.321,0,0,0,47.6,29.616V27.987a15.125,15.125,0,0,0,1.783-3.337,2.466,2.466,0,0,0,.332.023V27.5a1.047,1.047,0,0,0,2.061.265,2.1,2.1,0,0,1,.179,3.6ZM37.488,29.841a2.68,2.68,0,0,0-1.086-.963,5.514,5.514,0,0,0-.471-1.378,1.064,1.064,0,0,0,1.089-1.058v-1.77a2.467,2.467,0,0,0,.332-.023,15.169,15.169,0,0,0,1.783,3.337v1.629a6.289,6.289,0,0,0-1.648.225Zm13.283-9.98a9.213,9.213,0,0,0-.674,2.35c0,.191-.144.348-.46.338A1.743,1.743,0,0,0,47.521,23.6c-2.529,6.452-5.679,6.722-8.314,0a1.792,1.792,0,0,0-2.215-1.036.361.361,0,0,1-.356-.352,9.32,9.32,0,0,0-.674-2.351.715.715,0,0,1,1.107-.332,1.058,1.058,0,0,0,1.669-.6c.846-.555,3.145-1.853,4.626-2.942,1.5,1.1,3.808,2.409,4.626,2.942a1.058,1.058,0,0,0,1.669.6.715.715,0,0,1,1.11.333ZM41.251,30.053a3.914,3.914,0,0,0,4.231,0v.571a2.115,2.115,0,1,1-4.231.007ZM49.713,17.31a2.594,2.594,0,0,0-.289.037c-.588-.441-3.6-2.115-5.077-3.266a1.644,1.644,0,0,0-1.978.007c-1.344,1.042-4.47,2.818-5.062,3.259a2.644,2.644,0,0,0-.287-.037v-.652a5.962,5.962,0,0,1,5.817-6.081H43.9a5.954,5.954,0,0,1,5.817,6.081ZM34.376,29.764a1.058,1.058,0,0,0,1.058,1.016c.182,0,.529.423.529,1.082s-.345,1.079-.56,1.079a1.058,1.058,0,0,0-1.278.952,3.007,3.007,0,0,1-.712,1.887,8.22,8.22,0,0,0-1.277,1.6c-.455.7-.5.7-.726.7H29.933c-.536,0-.74-1.1-2.01-2.3a3.006,3.006,0,0,1-.707-1.882,1.085,1.085,0,0,0-1.308-.952c-.187,0-.529-.41-.529-1.081s.342-1.082.529-1.082a1.058,1.058,0,0,0,1.058-1.016c.175-4.432,7.24-4.42,7.409,0Zm-4.76,10.4a17.64,17.64,0,0,0,2.115,0c0,1.135.125,2.142-1.047,2.142a.972.972,0,0,1-1.068-1.058Zm2.122,12.719c-1.064-.882-4.061-3.369-7.41-6.2v-1.2A4.231,4.231,0,0,1,27.512,41.4a3.167,3.167,0,0,0,6.328,0,4.231,4.231,0,0,1,3.18,4.085v2.987C34.587,50.519,32.566,52.2,31.738,52.886Zm7.4-6.2v-1.2a6.353,6.353,0,0,0-5.289-6.251c0-.707-.02-.568.061-.693a6.224,6.224,0,0,1,.952-1.213,4.442,4.442,0,0,0,1.245-2.366,3.108,3.108,0,0,0,1.973-3.079,4.182,4.182,0,0,1,1.213-.148,4.2,4.2,0,0,0,8.151,0,4.231,4.231,0,0,1,4.337,3.758c-2.236,2.051-2.852,2.906-12.643,11.195ZM53.572,33.847a6.487,6.487,0,0,0-.338-.781,4.231,4.231,0,0,0-1.406-7.531v-2.02a2.441,2.441,0,0,0,.384-1.3c0-.723.975-1.657.584-2.954a2.773,2.773,0,0,0-.968-1.375V16.658a8.063,8.063,0,0,0-7.933-8.2H42.838a8.079,8.079,0,0,0-7.933,8.2v1.224a2.768,2.768,0,0,0-.967,1.375c-.393,1.3.583,2.232.583,2.955a2.441,2.441,0,0,0,.384,1.3v2c-.134.034-.262.085-.391.131-3.212-2.688-8.755-1.2-9.568,3.23a2.921,2.921,0,0,0-1.488,1.8c-.063,0-.123-.01-.187-.01V27.991a5.909,5.909,0,0,0,1.957-3.325c1.9-.516,2.915-3.187,1.828-5.3a15.47,15.47,0,0,0,.446-3.5,7.413,7.413,0,0,0-7.4-7.4H17.981a7.413,7.413,0,0,0-7.4,7.4,15.457,15.457,0,0,0,.441,3.49c-1.044,2.044-.162,4.8,1.834,5.318a5.887,5.887,0,0,0,1.956,3.318v2.681A6.362,6.362,0,0,0,9.54,33.516C5.789,29.97,2.115,25.631,2.115,17.682c0-9.749,5.55-15.566,14.847-15.566A15.782,15.782,0,0,1,30.384,9.688a1.632,1.632,0,0,0,2.7,0A15.782,15.782,0,0,1,46.5,2.115c9.3,0,14.847,5.817,14.847,15.566,0,8.2-3.906,12.554-7.775,16.165Z" transform="translate(0)"/></svg>