<svg xmlns="http://www.w3.org/2000/svg" viewBox="0 0 23.748 18.698"><defs><style>.a{fill:#00bab3;}.b{fill:#72246c;}.c{fill:#211747;}</style></defs><path class="a" d="M163.109,5.57a1.936,1.936,0,0,1-.162,2.817l-.3.295-1.778,1.78a.007.007,0,0,1-.009,0l-1.746-1.745s1.823-1.824,1.823-1.824-3.632-3.648-3.635-3.645l-1.821,1.823s-1.746-1.736-1.746-1.736a.007.007,0,0,1,0-.009l1.778-1.78.3-.3a1.921,1.921,0,0,1,2.811-.161l.46.46,3.567,3.568Z" transform="translate(-139.896 -0.538)"/><path class="b" d="M41.762,11.759l-1.748,1.748L29.561,3.054,27.812,4.8,38.266,15.255,36.518,17,24.316,4.8l3.5-3.5a2.5,2.5,0,0,1,1.5-.858,2.244,2.244,0,0,1,1.943.805C32.547,2.513,41.762,11.759,41.762,11.759Z" transform="translate(-22.194 -0.427)"/><path class="c" d="M1.606,64.165l12.2,12.2h0a2.476,2.476,0,0,1-3.5,0l-8.7-8.7a2.476,2.476,0,0,1,0-3.5Z" transform="translate(-0.881 -58.394)"/></svg>