<svg xmlns="http://www.w3.org/2000/svg" width="313.7" height="55.971" viewBox="0 0 313.7 55.971"><defs><style>.a{fill:#fff;}</style></defs><g transform="translate(-0.88 -0.427)"><g transform="translate(0.881 0.427)"><path class="a" d="M181.71,15.534c2.34,2.4,2.048,5.772-.483,8.407l-.885.879-5.307,5.313a.02.02,0,0,1-.028,0L169.8,24.926c-.008-.008,5.44-5.443,5.44-5.443S164.4,8.6,164.389,8.6l-5.436,5.441c-.008.008-5.212-5.18-5.212-5.18a.02.02,0,0,1,0-.028l5.307-5.313.891-.894a5.732,5.732,0,0,1,8.389-.479L169.7,3.525l10.647,10.648Z" transform="translate(-112.434 -0.516)"/><path class="a" d="M76.382,34.247l-5.216,5.216-31.2-31.2L34.75,13.48l31.2,31.2L60.732,49.9,24.316,13.48,34.75,3.047A7.464,7.464,0,0,1,39.22.487c1.844-.273,3.693.352,5.8,2.4C48.881,6.653,76.382,34.247,76.382,34.247Z" transform="translate(-17.984 -0.427)"/><path class="a" d="M3.044,64.165l36.417,36.417h0a7.388,7.388,0,0,1-10.449,0L3.044,74.614a7.389,7.389,0,0,1,0-10.449Z" transform="translate(-0.881 -46.943)"/></g><g transform="translate(83.724 3.958)"><path class="a" d="M310.988,13.5c1.568,0,3.321.6,3.321,3,0,2.122-1.845,2.952-3.506,2.952-1.568,0-3.321-.553-3.321-2.952C307.483,14.372,309.374,13.5,310.988,13.5Zm3,10.655V48.137H307.76V24.151Z" transform="translate(-307.483 -13.496)"/><path class="a" d="M359.971,54.756s.876-.738,2.122-1.753a9.4,9.4,0,0,1,5.95-2.122c4.428,0,7.011,1.937,7.7,5.535a21.528,21.528,0,0,1,.323,4.2V75.42H369.8V62.874c0-5.258-.553-7.8-4.705-7.8-2.444,0-5.12,1.569-5.12,4.751V75.42h-6.227V51.435h6.227Z" transform="translate(-341.244 -40.78)"/><path class="a" d="M459.31,62.2c0,6.458,3.183,10.056,8.164,10.056a13.629,13.629,0,0,0,5.72-1.153v2.491a16.142,16.142,0,0,1-9.041,2.722c-6.273,0-10.886-4.105-10.886-12.5,0-9.5,5.259-12.592,11.439-12.592,5.9,0,8.58,1.245,8.58,1.245l-.461,4.843s-3.782-3.044-8.118-3.044C460.324,54.267,459.31,58.326,459.31,62.2Z" transform="translate(-413.876 -41.029)"/><path class="a" d="M550.618,51.223c6.55,0,11.993,3.921,11.993,12.5,0,9.272-6.919,12.593-13.192,12.593-6.55,0-11.993-3.921-11.993-12.5C537.426,54.544,544.345,51.223,550.618,51.223Zm.277,21.726c3.736,0,5.443-3.552,5.443-8.026,0-7.7-4.151-10.378-7.288-10.378-3.782,0-5.4,3.506-5.4,8.026C543.653,70.273,547.758,72.949,550.895,72.949Z" transform="translate(-475.296 -41.029)"/><path class="a" d="M680.494,62.874c0-5.212-.461-7.749-4.428-7.8-2.306,0-5.074,1.153-5.074,4.382V75.42h-6.227V62.874c0-5.212-.461-7.749-4.474-7.8-2.491,0-5.166,1.476-5.166,4.751V75.42H648.9V51.435h6.227v3.321L657.2,53a9.3,9.3,0,0,1,6.043-2.122c3.644,0,6.135,1.384,7.1,4.013,0,0,1.061-.876,2.26-1.891a9.4,9.4,0,0,1,5.95-2.122c4.52,0,7.2,1.937,7.933,5.535a21.965,21.965,0,0,1,.277,4.2V75.42h-6.273Z" transform="translate(-556.648 -40.78)"/><path class="a" d="M816.446,55.038s.877-.692,2.122-1.614a9.337,9.337,0,0,1,5.628-2.029c6.5,0,10.148,4.658,10.148,11.393,0,9.041-6.827,13.654-13.423,13.654a13.592,13.592,0,0,1-4.474-.646v9.086h-6.227V51.809h6.227Zm0,15.268a5.8,5.8,0,0,0,5.3,2.906c4.29,0,6-4.659,6-8.995,0-5.351-2.122-8.718-6.089-8.764-2.168,0-5.213,1.338-5.213,4.7Z" transform="translate(-674.381 -41.154)"/><path class="a" d="M921.192,54.636a27.9,27.9,0,0,0-7.933,1.8l-.277-3.644a28.126,28.126,0,0,1,9.548-1.568c3.782,0,7.011.969,8.211,2.352,1.522,1.845,1.707,4.244,1.707,7.7V75.67h-6.227V72.579c-1.753,1.338-3.828,3.736-7.749,3.736-4.2,0-7.7-2.26-7.7-7.15,0-6.781,6.273-7.7,10.748-8.165l4.7-.507C926.173,56.9,925.2,54.636,921.192,54.636Zm5.028,12.823V63.908a23.145,23.145,0,0,0-3.921-.369c-3.183,0-5.3,1.845-5.3,4.336a3.911,3.911,0,0,0,4.2,4.151C923.267,72.026,926.219,70.5,926.219,67.459Z" transform="translate(-747.761 -41.029)"/><path class="a" d="M1018.994,76.316a23.383,23.383,0,0,1-8.533-1.292c.138-1.614.415-4.428.462-5.12,0,0,4.336,3.229,8.533,3.229,2.722,0,4.059-1.107,4.059-3.044,0-2.491-2.537-3.275-5.351-4.151-3.459-1.061-7.565-2.537-7.565-7.334,0-5.028,4.336-7.38,9.548-7.38a20.666,20.666,0,0,1,7.611,1.245c-.184,1.568-.369,4.29-.415,4.889,0,0-3.921-2.952-7.75-2.952-2.214,0-3.6.738-3.6,2.629,0,2.075,1.753,2.952,5.166,3.921,3.505.969,7.98,2.4,7.98,7.565C1029.142,74.471,1023.7,76.316,1018.994,76.316Z" transform="translate(-820.518 -41.029)"/><path class="a" d="M1101.275,76.316a23.382,23.382,0,0,1-8.533-1.292c.138-1.614.415-4.428.461-5.12,0,0,4.336,3.229,8.534,3.229,2.721,0,4.059-1.107,4.059-3.044,0-2.491-2.537-3.275-5.351-4.151-3.459-1.061-7.565-2.537-7.565-7.334,0-5.028,4.336-7.38,9.548-7.38a20.668,20.668,0,0,1,7.611,1.245c-.185,1.568-.369,4.29-.415,4.889,0,0-3.92-2.952-7.749-2.952-2.214,0-3.6.738-3.6,2.629,0,2.075,1.752,2.952,5.166,3.921,3.505.969,7.979,2.4,7.979,7.565C1111.423,74.471,1105.98,76.316,1101.275,76.316Z" transform="translate(-880.566 -41.029)"/></g><g transform="translate(84.02 45.393)"><path class="a" d="M317.3,167.289v10.757h-1.456v-4.894h-5.8v4.894H308.58V167.289h1.456v4.8h5.8v-4.8Z" transform="translate(-308.58 -167.169)"/><path class="a" d="M354.955,176.89a3,3,0,0,0,1.194-.225,2.508,2.508,0,0,0,.889-.63,2.761,2.761,0,0,0,.556-.968,3.83,3.83,0,0,0,.191-1.239v-6.539h1.449v6.539a4.9,4.9,0,0,1-.3,1.727,4.007,4.007,0,0,1-.848,1.377,3.877,3.877,0,0,1-1.347.912,5,5,0,0,1-3.573,0,3.917,3.917,0,0,1-1.351-.912,3.984,3.984,0,0,1-.852-1.377,4.91,4.91,0,0,1-.3-1.727v-6.539h1.449v6.531a3.832,3.832,0,0,0,.191,1.239,2.753,2.753,0,0,0,.556.968,2.54,2.54,0,0,0,.893.634A2.993,2.993,0,0,0,354.955,176.89Z" transform="translate(-339.297 -167.169)"/><path class="a" d="M403.393,167.289v10.757h-1.276v-7.9c0-.1,0-.218.011-.337s.016-.243.026-.368l-3.693,6.726a.559.559,0,0,1-.526.338h-.21a.559.559,0,0,1-.526-.338l-3.768-6.756a6.588,6.588,0,0,1,.045.736v7.9H392.2V167.289h1.073a.936.936,0,0,1,.3.038.434.434,0,0,1,.2.21l3.716,6.621q.09.18.176.375t.161.4q.075-.2.158-.4a4.046,4.046,0,0,1,.18-.379l3.648-6.614a.4.4,0,0,1,.2-.21.974.974,0,0,1,.3-.038Z" transform="translate(-369.607 -167.169)"/><path class="a" d="M449.782,178.046h-1.126a.484.484,0,0,1-.315-.1.6.6,0,0,1-.18-.248l-1.006-2.6h-4.827l-1.006,2.6a.527.527,0,0,1-.173.24.479.479,0,0,1-.315.105h-1.126l4.3-10.757h1.471Zm-3.033-3.994-1.689-4.376q-.075-.195-.157-.454t-.158-.552a8.2,8.2,0,0,1-.323,1.014l-1.689,4.369Z" transform="translate(-404.277 -167.169)"/><path class="a" d="M491.789,167.289v10.757h-.728a.625.625,0,0,1-.289-.06.73.73,0,0,1-.229-.2l-6.223-8.107q.015.188.022.368t.008.338v7.664h-1.276V167.289h.751a1.051,1.051,0,0,1,.165.011.423.423,0,0,1,.12.038.462.462,0,0,1,.105.075,1.16,1.16,0,0,1,.113.124l6.223,8.1c-.01-.13-.019-.256-.026-.379s-.011-.239-.011-.349v-7.619Z" transform="translate(-435.926 -167.169)"/><path class="a" d="M544.518,168.647a.558.558,0,0,1-.146.169.321.321,0,0,1-.192.056.535.535,0,0,1-.3-.128q-.173-.128-.432-.282a3.485,3.485,0,0,0-.623-.282,2.688,2.688,0,0,0-.882-.128,2.585,2.585,0,0,0-.86.131,1.837,1.837,0,0,0-.623.357,1.468,1.468,0,0,0-.379.529,1.682,1.682,0,0,0-.127.657,1.215,1.215,0,0,0,.222.747,1.9,1.9,0,0,0,.585.507,4.47,4.47,0,0,0,.826.364q.462.154.946.319t.946.371a3.324,3.324,0,0,1,.826.522,2.384,2.384,0,0,1,.586.773,2.579,2.579,0,0,1,.221,1.126,3.627,3.627,0,0,1-.24,1.325,3.057,3.057,0,0,1-.7,1.077,3.29,3.29,0,0,1-1.133.721,4.178,4.178,0,0,1-1.528.263,4.652,4.652,0,0,1-1.906-.379,4.47,4.47,0,0,1-1.464-1.024l.421-.691a.549.549,0,0,1,.146-.139.343.343,0,0,1,.191-.056.425.425,0,0,1,.222.079c.082.053.176.119.281.2s.225.168.36.263a2.955,2.955,0,0,0,.462.263,3.12,3.12,0,0,0,.589.2,3.219,3.219,0,0,0,.743.079,2.772,2.772,0,0,0,.923-.142,1.959,1.959,0,0,0,.687-.4,1.739,1.739,0,0,0,.431-.619,2.065,2.065,0,0,0,.15-.8,1.35,1.35,0,0,0-.221-.8,1.843,1.843,0,0,0-.582-.522,4.057,4.057,0,0,0-.825-.357q-.466-.146-.946-.3a9.98,9.98,0,0,1-.946-.356,3.051,3.051,0,0,1-.825-.526,2.414,2.414,0,0,1-.582-.807,3.1,3.1,0,0,1,0-2.3,2.824,2.824,0,0,1,.646-.946,3.159,3.159,0,0,1,1.043-.661,3.81,3.81,0,0,1,1.423-.248,4.528,4.528,0,0,1,1.64.285,3.878,3.878,0,0,1,1.3.826Z" transform="translate(-476.111 -166.845)"/><path class="a" d="M579.167,176.86l-.007,1.186h-6.629V167.289h6.629v1.186h-5.172v3.573h4.189v1.141h-4.189v3.671Z" transform="translate(-501.212 -167.169)"/><path class="a" d="M613.513,178.046h-1.291a.636.636,0,0,1-.586-.308l-2.792-3.844a.831.831,0,0,0-.274-.259,1,1,0,0,0-.454-.079h-1.1v4.489h-1.448V167.289h3.04a6.635,6.635,0,0,1,1.764.207,3.367,3.367,0,0,1,1.227.6,2.393,2.393,0,0,1,.717.942,3.151,3.151,0,0,1,.233,1.235,3.1,3.1,0,0,1-.18,1.066,2.822,2.822,0,0,1-.522.889,3.137,3.137,0,0,1-.833.672,4.123,4.123,0,0,1-1.115.42,1.443,1.443,0,0,1,.48.458Zm-4.969-5.547a3.679,3.679,0,0,0,1.115-.154,2.283,2.283,0,0,0,.811-.436,1.813,1.813,0,0,0,.492-.672,2.2,2.2,0,0,0,.165-.863,1.719,1.719,0,0,0-.63-1.449,3.063,3.063,0,0,0-1.892-.488h-1.592V172.5Z" transform="translate(-525.32 -167.169)"/><path class="a" d="M646.141,167.289l-4.384,10.757h-1.306l-4.384-10.757h1.164a.483.483,0,0,1,.315.1.6.6,0,0,1,.181.248l3.032,7.589q.1.255.191.555t.169.631q.074-.33.157-.631t.18-.555l3.025-7.589a.548.548,0,0,1,.176-.237.484.484,0,0,1,.319-.109Z" transform="translate(-547.581 -167.169)"/><path class="a" d="M681.168,178.046h-1.456V167.289h1.456Z" transform="translate(-579.433 -167.169)"/><path class="a" d="M701.759,175.5a.278.278,0,0,1,.21.1l.578.623a4.6,4.6,0,0,1-1.6,1.194,5.489,5.489,0,0,1-2.278.428,5.323,5.323,0,0,1-2.1-.4,4.621,4.621,0,0,1-1.614-1.126,5.092,5.092,0,0,1-1.036-1.738,6.5,6.5,0,0,1-.368-2.23,6.265,6.265,0,0,1,.383-2.229,5.1,5.1,0,0,1,1.077-1.741,4.813,4.813,0,0,1,1.662-1.13,5.534,5.534,0,0,1,2.14-.4,5.213,5.213,0,0,1,2.027.368,5.108,5.108,0,0,1,1.547,1l-.48.668a.4.4,0,0,1-.116.124.336.336,0,0,1-.192.048.593.593,0,0,1-.331-.146,5.022,5.022,0,0,0-.51-.326,3.8,3.8,0,0,0-1.952-.473,3.908,3.908,0,0,0-1.524.289,3.328,3.328,0,0,0-1.19.837,3.857,3.857,0,0,0-.777,1.336,5.328,5.328,0,0,0-.278,1.779,5.19,5.19,0,0,0,.289,1.794,3.96,3.96,0,0,0,.788,1.332,3.323,3.323,0,0,0,1.179.829,3.745,3.745,0,0,0,1.468.285,6.056,6.056,0,0,0,.867-.056,3.548,3.548,0,0,0,.713-.176,3.007,3.007,0,0,0,.608-.3,4.328,4.328,0,0,0,.559-.439A.388.388,0,0,1,701.759,175.5Z" transform="translate(-589.53 -166.845)"/><path class="a" d="M740.578,176.86l-.008,1.186h-6.628V167.289h6.628v1.186H735.4v3.573h4.189v1.141H735.4v3.671Z" transform="translate(-619.01 -167.169)"/><path class="a" d="M769.993,168.647a.56.56,0,0,1-.146.169.32.32,0,0,1-.191.056.535.535,0,0,1-.3-.128q-.172-.128-.432-.282a3.488,3.488,0,0,0-.623-.282,2.686,2.686,0,0,0-.882-.128,2.582,2.582,0,0,0-.859.131,1.84,1.84,0,0,0-.623.357,1.463,1.463,0,0,0-.379.529,1.678,1.678,0,0,0-.128.657,1.214,1.214,0,0,0,.222.747,1.9,1.9,0,0,0,.585.507,4.467,4.467,0,0,0,.826.364q.462.154.946.319t.946.371a3.324,3.324,0,0,1,.826.522,2.378,2.378,0,0,1,.585.773,2.57,2.57,0,0,1,.222,1.126,3.632,3.632,0,0,1-.24,1.325,3.053,3.053,0,0,1-.7,1.077,3.287,3.287,0,0,1-1.134.721,4.176,4.176,0,0,1-1.527.263,4.654,4.654,0,0,1-1.907-.379,4.471,4.471,0,0,1-1.464-1.024l.42-.691a.561.561,0,0,1,.146-.139.343.343,0,0,1,.192-.056.425.425,0,0,1,.221.079q.124.079.281.2t.36.263a2.936,2.936,0,0,0,.462.263,3.118,3.118,0,0,0,.589.2,3.216,3.216,0,0,0,.743.079,2.768,2.768,0,0,0,.923-.142,1.958,1.958,0,0,0,.687-.4,1.742,1.742,0,0,0,.431-.619,2.067,2.067,0,0,0,.15-.8,1.349,1.349,0,0,0-.221-.8,1.843,1.843,0,0,0-.582-.522,4.063,4.063,0,0,0-.826-.357q-.465-.146-.946-.3a9.975,9.975,0,0,1-.946-.356,3.052,3.052,0,0,1-.826-.526,2.411,2.411,0,0,1-.582-.807,3.093,3.093,0,0,1,0-2.3,2.819,2.819,0,0,1,.646-.946,3.157,3.157,0,0,1,1.043-.661,3.81,3.81,0,0,1,1.422-.248,4.529,4.529,0,0,1,1.64.285,3.879,3.879,0,0,1,1.3.826Z" transform="translate(-640.663 -166.845)"/></g></g></svg>