<svg xmlns="http://www.w3.org/2000/svg" width="700.295" height="551.389" viewBox="0 0 700.295 551.389"><defs><style>.a{opacity:0.05;}.b{fill:#fff;}</style></defs><g class="a"><path class="b" d="M430.159,148.614c23.123,23.689,20.24,57.032-4.768,83.071l-8.744,8.685-52.443,52.5a.2.2,0,0,1-.278,0l-51.5-51.455c-.077-.077,53.757-53.778,53.757-53.778C366.265,187.563,259.07,80.066,259,80.144l-53.714,53.765c-.077.077-51.5-51.183-51.5-51.183a.2.2,0,0,1,0-.275l52.435-52.5,8.8-8.834C240.037-5.747,276.346-5.2,297.923,16.381L311.5,29.949,416.7,135.16Z" transform="translate(254.357 -0.222)"/><path class="b" d="M538.78,334.6l-51.543,51.543L178.991,77.9l-51.578,51.511,308.28,308.28L384.145,489.24,24.316,129.411s103-102.991,103.1-103.089c14.841-14.975,26.743-22.723,44.164-25.3C189.8-1.671,208.068,4.5,228.871,24.768,267.039,61.951,538.78,334.6,538.78,334.6Z" transform="translate(38.252 -0.427)"/><path class="b" d="M22.262,64.165,382.1,424h0a73,73,0,0,1-103.244,0L22.262,167.409a73.008,73.008,0,0,1,0-103.244Z" transform="translate(-0.88 106.004)"/></g></svg>