<?xml version="1.0" encoding="UTF-8"?> <!-- Generator: Adobe Illustrator 24.3.0, SVG Export Plug-In . SVG Version: 6.00 Build 0) --> <svg xmlns="http://www.w3.org/2000/svg" xmlns:xlink="http://www.w3.org/1999/xlink" version="1.1" id="Layer_1" x="0px" y="0px" viewBox="0 0 1200 326.98" style="enable-background:new 0 0 1200 326.98;" xml:space="preserve"> <style type="text/css"> .st0{fill:#FFFFFF;} .st1{opacity:0.7;} </style> <g> <path class="st0" d="M257.27,56.01c8.66,8.87,7.58,21.36-1.79,31.11l-3.27,3.25l-19.64,19.66c-0.03,0.03-0.07,0.03-0.1,0 l-19.29-19.27c-0.03-0.03,20.14-20.14,20.14-20.14c0.03-0.03-40.12-40.29-40.15-40.26L173.04,50.5 c-0.03,0.03-19.29-19.17-19.29-19.17c-0.03-0.03-0.03-0.08,0-0.1l19.64-19.66l3.3-3.31c9.37-10.06,22.97-9.86,31.05-1.77l5.09,5.08 l39.4,39.41L257.27,56.01L257.27,56.01z"></path> <path class="st0" d="M217.01,125.6l-19.31,19.31L82.25,29.45L62.93,48.74L178.4,164.21l-19.31,19.31L24.32,48.74 c0,0,38.58-38.58,38.62-38.61c5.56-5.61,10.02-8.51,16.54-9.48c6.83-1.01,13.67,1.3,21.46,8.89 C115.23,23.47,217.01,125.6,217.01,125.6L217.01,125.6z"></path> <path class="st0" d="M8.89,64.16l134.78,134.78l0,0c-10.68,10.68-27.99,10.68-38.67,0L8.89,102.84 C-1.79,92.16-1.79,74.84,8.89,64.16L8.89,64.16L8.89,64.16z"></path> <path class="st0" d="M331.55,52.93v88.77h-23.05V52.93H331.55L331.55,52.93z M320.46,13.5c5.8,0,12.29,2.22,12.29,11.1 c0,7.85-6.83,10.92-12.97,10.92c-5.8,0-12.29-2.05-12.29-10.92C307.48,16.74,314.48,13.5,320.46,13.5L320.46,13.5z"></path> <path class="st0" d="M376.79,65.22c0,0,3.24-2.73,7.85-6.49c6.15-5.12,14.17-7.85,22.02-7.85c16.39,0,25.95,7.17,28.51,20.49 c0.85,3.93,1.19,9.56,1.19,15.53v54.8h-23.22V95.27c0-19.46-2.05-28.85-17.41-28.85c-9.05,0-18.95,5.8-18.95,17.58v57.7h-23.05 V52.93h23.05V65.22L376.79,65.22z"></path> <path class="st0" d="M475.63,91.85c0,23.9,11.78,37.22,30.22,37.22c12.46,0,21.51-4.27,21.17-4.27v9.22 c-4.27,2.73-15.7,10.07-33.46,10.07c-23.22,0-40.29-15.19-40.29-46.26c0-35.17,19.46-46.6,42.34-46.6 c21.85,0,31.75,4.61,31.75,4.61l-1.71,17.92c0,0-14-11.27-30.05-11.27C479.39,62.49,475.63,77.51,475.63,91.85L475.63,91.85z"></path> <path class="st0" d="M587.27,131.63c13.83,0,20.14-13.15,20.14-29.71c0-28.51-15.36-38.41-26.97-38.41 c-14,0-19.97,12.97-19.97,29.7C560.47,121.73,575.66,131.63,587.27,131.63L587.27,131.63z M586.25,51.22 c24.24,0,44.38,14.51,44.38,46.26c0,34.31-25.61,46.61-48.82,46.61c-24.24,0-44.39-14.51-44.39-46.26 C537.43,63.51,563.03,51.22,586.25,51.22L586.25,51.22z"></path> <path class="st0" d="M765.84,95.27c0-19.29-1.71-28.68-16.39-28.85c-8.54,0-18.78,4.27-18.78,16.22v59.07h-23.05V95.27 c0-19.29-1.71-28.68-16.56-28.85c-9.22,0-19.12,5.46-19.12,17.58v57.7H648.9V52.93h23.05v12.29l7.68-6.49 c6.32-5.29,14.17-7.85,22.36-7.85c13.49,0,22.71,5.12,26.29,14.85c0,0,3.92-3.24,8.36-7c6.32-5.12,14-7.85,22.02-7.85 c16.73,0,26.63,7.17,29.36,20.49c0.85,3.93,1.02,9.56,1.02,15.53v54.8h-23.22V95.27L765.84,95.27z"></path> <path class="st0" d="M833.27,121.39c0,0,5.12,10.76,19.63,10.76c15.88,0,22.19-17.24,22.19-33.29c0-19.8-7.85-32.26-22.54-32.43 c-8.02,0-19.29,4.95-19.29,17.41V121.39L833.27,121.39z M833.27,64.88c0,0,3.24-2.56,7.85-5.98c5.98-4.61,13.32-7.51,20.83-7.51 c24.07,0,37.56,17.24,37.56,42.16c0,33.46-25.27,50.53-49.68,50.53c-11.09,0-16.56-2.56-16.56-2.39v33.63h-23.05V52.93h23.05V64.88 L833.27,64.88z"></path> <path class="st0" d="M967.96,111.31V98.17c-1.2-0.17-7.17-1.37-14.51-1.37c-11.78,0-19.63,6.83-19.63,16.05 c0,9.22,5.97,15.36,15.54,15.36C957.03,128.21,967.96,122.58,967.96,111.31L967.96,111.31z M949.35,63.86 c-11.44,0-28.17,6.15-29.36,6.66l-1.03-13.49c0,0,14.51-5.8,35.34-5.8c14,0,25.95,3.59,30.39,8.71c5.63,6.83,6.32,15.71,6.32,28.51 v53.26h-23.05v-11.44c-6.49,4.95-14.17,13.83-28.68,13.83c-15.54,0-28.51-8.36-28.51-26.46c0-25.1,23.22-28.51,39.78-30.22 l17.41-1.88C967.78,72.22,964.2,63.86,949.35,63.86L949.35,63.86z"></path> <path class="st0" d="M1042.04,144.09c-19.8,0-31.58-4.61-31.58-4.78c0.51-5.98,1.54-16.39,1.71-18.95c0,0,16.05,11.95,31.58,11.95 c10.07,0,15.02-4.1,15.02-11.27c0-9.22-9.39-12.12-19.8-15.36c-12.8-3.93-28-9.39-28-27.14c0-18.61,16.05-27.31,35.34-27.31 c18.27,0,28.17,4.78,28.17,4.61c-0.68,5.8-1.37,15.88-1.54,18.09c0,0-14.51-10.93-28.68-10.93c-8.19,0-13.31,2.73-13.31,9.73 c0,7.68,6.48,10.92,19.12,14.51c12.97,3.59,29.53,8.88,29.53,28C1079.6,137.26,1059.46,144.09,1042.04,144.09L1042.04,144.09z"></path> <path class="st0" d="M1124.32,144.09c-19.8,0-31.58-4.61-31.58-4.78c0.51-5.98,1.54-16.39,1.71-18.95c0,0,16.05,11.95,31.58,11.95 c10.07,0,15.02-4.1,15.02-11.27c0-9.22-9.39-12.12-19.8-15.36c-12.8-3.93-28-9.39-28-27.14c0-18.61,16.05-27.31,35.34-27.31 c18.27,0,28.17,4.78,28.17,4.61c-0.68,5.8-1.37,15.88-1.54,18.09c0,0-14.51-10.93-28.68-10.93c-8.19,0-13.31,2.73-13.31,9.73 c0,7.68,6.48,10.92,19.12,14.51c12.97,3.59,29.53,8.88,29.53,28C1161.88,137.26,1141.74,144.09,1124.32,144.09L1124.32,144.09z"></path> <polygon class="st0" points="340.83,167.29 340.83,207.1 335.44,207.1 335.44,188.99 313.97,188.99 313.97,207.1 308.58,207.1 308.58,167.29 313.97,167.29 313.97,185.04 335.44,185.04 335.44,167.29 340.83,167.29 "></polygon> <path class="st0" d="M366.53,202.82c1.65,0,3.12-0.28,4.42-0.83c1.3-0.56,2.39-1.33,3.29-2.33c0.9-1,1.58-2.2,2.06-3.58 c0.47-1.39,0.71-2.92,0.71-4.58v-24.2h5.36v24.2c0,2.3-0.37,4.43-1.1,6.39c-0.73,1.96-1.78,3.66-3.14,5.1 c-1.36,1.44-3.02,2.56-4.99,3.38c-1.96,0.81-4.17,1.22-6.61,1.22c-2.45,0-4.65-0.41-6.61-1.22c-1.96-0.81-3.63-1.94-5-3.38 c-1.37-1.43-2.42-3.13-3.15-5.1c-0.73-1.96-1.1-4.09-1.1-6.39v-24.2h5.36v24.17c0,1.67,0.24,3.2,0.71,4.59s1.16,2.58,2.06,3.58 c0.9,1,2,1.78,3.31,2.35C363.41,202.54,364.88,202.82,366.53,202.82L366.53,202.82z"></path> <path class="st0" d="M433.62,167.29v39.81h-4.72v-29.25c0-0.39,0.01-0.81,0.04-1.25c0.03-0.44,0.06-0.9,0.1-1.36l-13.67,24.89 c-0.43,0.83-1.08,1.25-1.95,1.25h-0.78c-0.87,0-1.52-0.42-1.95-1.25l-13.95-25c0.11,0.98,0.17,1.89,0.17,2.72v29.25h-4.72v-39.81 h3.97c0.48,0,0.85,0.05,1.11,0.14c0.26,0.09,0.51,0.35,0.75,0.78l13.75,24.5c0.22,0.44,0.44,0.91,0.65,1.39 c0.21,0.48,0.41,0.97,0.6,1.47c0.18-0.5,0.38-1,0.58-1.49c0.2-0.49,0.43-0.96,0.67-1.4l13.5-24.48c0.22-0.42,0.47-0.68,0.74-0.78 c0.27-0.09,0.64-0.14,1.13-0.14H433.62L433.62,167.29z"></path> <path class="st0" d="M465.77,192.32l-6.25-16.2c-0.19-0.48-0.38-1.04-0.58-1.68c-0.2-0.64-0.4-1.32-0.58-2.04 c-0.39,1.5-0.79,2.75-1.2,3.75l-6.25,16.17H465.77L465.77,192.32z M476.99,207.1h-4.17c-0.48,0-0.87-0.12-1.17-0.36 c-0.3-0.24-0.52-0.55-0.67-0.92l-3.72-9.61H449.4l-3.72,9.61c-0.11,0.33-0.32,0.63-0.64,0.89c-0.32,0.26-0.7,0.39-1.17,0.39h-4.17 l15.92-39.81h5.45L476.99,207.1L476.99,207.1z"></path> <path class="st0" d="M515.33,167.29v39.81h-2.7c-0.43,0-0.78-0.07-1.07-0.22c-0.29-0.15-0.57-0.4-0.85-0.75l-23.03-30 c0.04,0.46,0.07,0.92,0.08,1.36c0.02,0.44,0.03,0.86,0.03,1.25v28.36h-4.72v-39.81h2.78c0.24,0,0.44,0.01,0.61,0.04 c0.17,0.03,0.32,0.08,0.44,0.14c0.13,0.07,0.26,0.16,0.39,0.28c0.13,0.12,0.27,0.27,0.42,0.46l23.03,29.98 c-0.04-0.48-0.07-0.95-0.1-1.4c-0.03-0.45-0.04-0.88-0.04-1.29v-28.2H515.33L515.33,167.29z"></path> <path class="st0" d="M561.75,173.51c-0.17,0.28-0.35,0.48-0.54,0.62c-0.19,0.14-0.43,0.21-0.71,0.21c-0.31,0-0.69-0.16-1.11-0.47 c-0.43-0.31-0.96-0.66-1.6-1.04c-0.64-0.38-1.41-0.73-2.31-1.04c-0.9-0.31-1.99-0.47-3.26-0.47c-1.2,0-2.27,0.16-3.18,0.49 c-0.92,0.32-1.69,0.76-2.31,1.32c-0.62,0.56-1.09,1.21-1.4,1.96c-0.31,0.75-0.47,1.56-0.47,2.43c0,1.11,0.27,2.03,0.82,2.77 c0.55,0.73,1.27,1.36,2.17,1.88c0.9,0.52,1.92,0.97,3.06,1.35c1.14,0.38,2.31,0.77,3.5,1.18c1.19,0.41,2.36,0.87,3.5,1.37 c1.14,0.51,2.16,1.15,3.06,1.93c0.9,0.78,1.62,1.73,2.17,2.86c0.55,1.13,0.82,2.52,0.82,4.17c0,1.74-0.3,3.38-0.89,4.9 c-0.59,1.53-1.46,2.86-2.6,3.99c-1.14,1.13-2.54,2.02-4.19,2.67c-1.66,0.65-3.54,0.97-5.65,0.97c-2.59,0-4.94-0.47-7.06-1.4 c-2.11-0.93-3.92-2.2-5.42-3.79l1.56-2.56c0.15-0.2,0.33-0.38,0.54-0.51c0.21-0.14,0.45-0.21,0.71-0.21c0.24,0,0.51,0.1,0.82,0.29 c0.31,0.2,0.65,0.44,1.04,0.74c0.39,0.3,0.83,0.62,1.33,0.97c0.5,0.35,1.07,0.68,1.71,0.97c0.64,0.3,1.37,0.54,2.18,0.74 c0.81,0.19,1.73,0.29,2.75,0.29c1.28,0,2.42-0.18,3.42-0.53c1-0.35,1.85-0.85,2.54-1.49c0.69-0.64,1.23-1.4,1.6-2.29 c0.37-0.89,0.56-1.88,0.56-2.97c0-1.2-0.27-2.19-0.82-2.96c-0.55-0.77-1.26-1.41-2.15-1.93c-0.89-0.52-1.91-0.96-3.06-1.32 c-1.15-0.36-2.32-0.73-3.5-1.11c-1.19-0.38-2.35-0.82-3.5-1.32c-1.15-0.5-2.17-1.15-3.06-1.95c-0.89-0.79-1.61-1.79-2.15-2.99 c-0.55-1.19-0.82-2.67-0.82-4.43c0-1.41,0.27-2.77,0.82-4.08c0.55-1.31,1.34-2.48,2.39-3.5c1.05-1.02,2.33-1.83,3.86-2.44 c1.53-0.61,3.28-0.92,5.26-0.92c2.22,0,4.24,0.35,6.07,1.06c1.82,0.7,3.43,1.72,4.82,3.06L561.75,173.51L561.75,173.51z"></path> <polygon class="st0" points="597.09,202.71 597.06,207.1 572.53,207.1 572.53,167.29 597.06,167.29 597.06,171.68 577.92,171.68 577.92,184.9 593.42,184.9 593.42,189.13 577.92,189.13 577.92,202.71 597.09,202.71 "></polygon> <path class="st0" d="M616.59,186.57c1.56,0,2.93-0.19,4.12-0.57c1.19-0.38,2.2-0.92,3-1.61c0.8-0.69,1.41-1.52,1.82-2.49 c0.41-0.96,0.61-2.03,0.61-3.2c0-2.37-0.78-4.16-2.33-5.36c-1.56-1.2-3.89-1.81-7-1.81h-5.89v15.03H616.59L616.59,186.57z M634.98,207.1h-4.78c-0.98,0-1.71-0.38-2.17-1.14l-10.33-14.22c-0.32-0.45-0.65-0.76-1.01-0.96c-0.36-0.2-0.92-0.29-1.68-0.29 h-4.08v16.61h-5.36v-39.81h11.25c2.52,0,4.7,0.25,6.53,0.76c1.83,0.51,3.35,1.25,4.54,2.21c1.2,0.96,2.08,2.13,2.65,3.49 c0.58,1.36,0.86,2.88,0.86,4.57c0,1.41-0.22,2.72-0.67,3.95c-0.45,1.22-1.09,2.32-1.93,3.29c-0.84,0.97-1.87,1.8-3.08,2.49 c-1.21,0.69-2.59,1.21-4.12,1.56c0.68,0.39,1.28,0.95,1.78,1.69L634.98,207.1L634.98,207.1z"></path> <path class="st0" d="M673.35,167.29l-16.23,39.81h-4.83l-16.22-39.81h4.31c0.48,0,0.87,0.12,1.17,0.36 c0.3,0.24,0.52,0.55,0.67,0.92l11.22,28.09c0.24,0.63,0.48,1.32,0.71,2.05c0.23,0.74,0.44,1.52,0.63,2.33 c0.18-0.81,0.38-1.59,0.58-2.33c0.2-0.74,0.43-1.42,0.67-2.05l11.2-28.09c0.11-0.32,0.33-0.61,0.65-0.88 c0.32-0.27,0.72-0.4,1.18-0.4H673.35L673.35,167.29z"></path> <polygon class="st0" points="685.1,207.1 679.71,207.1 679.71,167.29 685.1,167.29 685.1,207.1 "></polygon> <path class="st0" d="M723.94,198.88c0.3,0,0.56,0.12,0.78,0.36l2.14,2.31c-1.63,1.89-3.61,3.36-5.93,4.42 c-2.33,1.06-5.14,1.58-8.43,1.58c-2.85,0-5.45-0.49-7.78-1.49c-2.33-0.99-4.33-2.38-5.97-4.17c-1.65-1.79-2.93-3.93-3.84-6.43 c-0.91-2.5-1.36-5.25-1.36-8.25c0-3,0.47-5.75,1.42-8.25c0.94-2.5,2.27-4.65,3.99-6.45c1.71-1.8,3.77-3.19,6.15-4.18 c2.39-0.99,5.03-1.49,7.92-1.49c2.83,0,5.34,0.45,7.5,1.36c2.17,0.91,4.07,2.14,5.72,3.7l-1.78,2.47 c-0.11,0.19-0.26,0.34-0.43,0.46c-0.18,0.12-0.41,0.18-0.71,0.18c-0.33,0-0.74-0.18-1.22-0.54c-0.48-0.36-1.11-0.76-1.89-1.21 c-0.78-0.44-1.75-0.85-2.92-1.21c-1.17-0.36-2.6-0.54-4.31-0.54c-2.06,0-3.94,0.36-5.64,1.07c-1.7,0.71-3.17,1.75-4.4,3.1 c-1.23,1.35-2.19,3-2.88,4.95c-0.68,1.95-1.03,4.14-1.03,6.58c0,2.48,0.36,4.7,1.07,6.64c0.71,1.94,1.69,3.59,2.92,4.93 c1.23,1.34,2.68,2.37,4.36,3.07c1.68,0.7,3.49,1.06,5.43,1.06c1.19,0,2.25-0.07,3.21-0.21c0.95-0.14,1.83-0.36,2.64-0.65 c0.81-0.3,1.56-0.67,2.25-1.12c0.69-0.45,1.38-1,2.07-1.63C723.31,199.02,723.62,198.88,723.94,198.88L723.94,198.88z"></path> <polygon class="st0" points="758.5,202.71 758.47,207.1 733.94,207.1 733.94,167.29 758.47,167.29 758.47,171.68 739.33,171.68 739.33,184.9 754.83,184.9 754.83,189.13 739.33,189.13 739.33,202.71 758.5,202.71 "></polygon> <path class="st0" d="M787.23,173.51c-0.17,0.28-0.35,0.48-0.54,0.62c-0.19,0.14-0.43,0.21-0.71,0.21c-0.32,0-0.69-0.16-1.11-0.47 c-0.43-0.31-0.96-0.66-1.6-1.04c-0.64-0.38-1.41-0.73-2.31-1.04c-0.9-0.31-1.99-0.47-3.26-0.47c-1.2,0-2.26,0.16-3.18,0.49 c-0.92,0.32-1.69,0.76-2.31,1.32c-0.62,0.56-1.09,1.21-1.4,1.96c-0.32,0.75-0.47,1.56-0.47,2.43c0,1.11,0.27,2.03,0.82,2.77 c0.54,0.73,1.27,1.36,2.17,1.88c0.9,0.52,1.92,0.97,3.05,1.35c1.14,0.38,2.31,0.77,3.5,1.18c1.2,0.41,2.36,0.87,3.5,1.37 c1.14,0.51,2.16,1.15,3.06,1.93c0.9,0.78,1.62,1.73,2.17,2.86c0.55,1.13,0.82,2.52,0.82,4.17c0,1.74-0.3,3.38-0.89,4.9 c-0.59,1.53-1.46,2.86-2.6,3.99c-1.14,1.13-2.54,2.02-4.19,2.67c-1.66,0.65-3.54,0.97-5.65,0.97c-2.59,0-4.95-0.47-7.06-1.4 c-2.11-0.93-3.92-2.2-5.42-3.79l1.55-2.56c0.15-0.2,0.33-0.38,0.54-0.51c0.21-0.14,0.45-0.21,0.71-0.21c0.24,0,0.51,0.1,0.82,0.29 c0.31,0.2,0.65,0.44,1.04,0.74s0.83,0.62,1.33,0.97c0.5,0.35,1.07,0.68,1.71,0.97c0.64,0.3,1.37,0.54,2.18,0.74 s1.73,0.29,2.75,0.29c1.28,0,2.42-0.18,3.42-0.53c1-0.35,1.85-0.85,2.54-1.49c0.69-0.64,1.23-1.4,1.6-2.29 c0.37-0.89,0.56-1.88,0.56-2.97c0-1.2-0.27-2.19-0.82-2.96c-0.55-0.77-1.26-1.41-2.15-1.93c-0.89-0.52-1.91-0.96-3.06-1.32 c-1.15-0.36-2.31-0.73-3.5-1.11c-1.18-0.38-2.35-0.82-3.5-1.32c-1.15-0.5-2.17-1.15-3.06-1.95c-0.89-0.79-1.61-1.79-2.15-2.99 c-0.55-1.19-0.82-2.67-0.82-4.43c0-1.41,0.27-2.77,0.82-4.08c0.55-1.31,1.34-2.48,2.39-3.5c1.05-1.02,2.33-1.83,3.86-2.44 c1.53-0.61,3.28-0.92,5.27-0.92c2.22,0,4.24,0.35,6.07,1.06c1.82,0.7,3.43,1.72,4.82,3.06L787.23,173.51L787.23,173.51z"></path> <polygon class="st0" points="1181.66,54.93 1177.11,54.93 1177.11,67.71 1174.3,67.71 1174.3,54.93 1169.76,54.93 1169.76,52.63 1181.66,52.63 1181.66,54.93 "></polygon> <path class="st0" d="M1200,52.63v15.09h-2.47v-9.74c0-0.39,0.02-0.81,0.06-1.26l-4.56,8.57c-0.21,0.41-0.55,0.62-0.99,0.62h-0.4 c-0.44,0-0.77-0.21-0.99-0.62l-4.61-8.6c0.02,0.23,0.04,0.46,0.05,0.68c0.02,0.22,0.02,0.43,0.02,0.62v9.74h-2.47V52.63h2.12 c0.12,0,0.23,0,0.32,0.01c0.09,0.01,0.18,0.02,0.25,0.05c0.07,0.03,0.14,0.07,0.2,0.14c0.06,0.06,0.11,0.15,0.17,0.25l4.52,8.38 c0.11,0.22,0.22,0.45,0.32,0.69c0.1,0.24,0.2,0.48,0.3,0.73c0.1-0.26,0.2-0.51,0.3-0.75c0.11-0.24,0.22-0.47,0.34-0.69l4.45-8.36 c0.06-0.1,0.12-0.19,0.18-0.25c0.06-0.06,0.13-0.11,0.2-0.14c0.08-0.03,0.16-0.04,0.25-0.05c0.09-0.01,0.2-0.01,0.32-0.01H1200 L1200,52.63z"></path> </g> <g class="st1"> <path class="st0" d="M326.14,309.29c-0.7,1.24-1.45,2.36-2.25,3.36c-0.8,1.01-1.65,1.86-2.55,2.57c-0.9,0.71-1.85,1.25-2.84,1.64 c-1,0.39-2.03,0.58-3.09,0.58c-1.16,0-2.21-0.23-3.16-0.68c-0.95-0.45-1.75-1.12-2.42-2s-1.18-1.96-1.55-3.25 c-0.37-1.29-0.55-2.76-0.55-4.42c0-1.74,0.22-3.44,0.65-5.09c0.44-1.65,1.05-3.21,1.86-4.68c0.8-1.47,1.76-2.82,2.89-4.05 c1.12-1.23,2.37-2.29,3.76-3.19c1.38-0.9,2.87-1.59,4.45-2.09s3.25-0.74,4.99-0.74c1.26,0,2.48,0.1,3.67,0.3s2.36,0.56,3.52,1.06 L330,317.03h-2.67c-0.68,0-1.14-0.17-1.38-0.52s-0.36-0.77-0.36-1.28L326.14,309.29z M328.11,291.25c-0.43-0.1-0.85-0.16-1.26-0.19 c-0.42-0.03-0.83-0.04-1.23-0.04c-1.16,0-2.28,0.19-3.36,0.57c-1.08,0.38-2.1,0.9-3.04,1.58c-0.95,0.68-1.81,1.48-2.58,2.42 c-0.77,0.94-1.44,1.97-1.99,3.09c-0.55,1.12-0.98,2.32-1.29,3.58c-0.31,1.27-0.46,2.57-0.46,3.9c0,4.66,1.49,6.99,4.47,6.99 c0.95,0,1.88-0.29,2.78-0.88c0.91-0.59,1.77-1.41,2.6-2.46c0.82-1.05,1.58-2.3,2.28-3.74c0.7-1.44,1.31-3.02,1.86-4.74 L328.11,291.25z"></path> <path class="st0" d="M345.02,295.08c1.57-2.59,3.33-4.55,5.31-5.87c1.97-1.32,4-1.99,6.09-1.99c1.24,0,2.32,0.25,3.26,0.74 c0.94,0.49,1.7,1.21,2.29,2.16c0.59,0.95,0.99,2.11,1.2,3.49c0.21,1.38,0.21,2.95,0,4.71l-2.2,18.71h-5.13l2.2-18.71 c0.27-2.32,0.13-4.04-0.44-5.15c-0.56-1.11-1.59-1.67-3.1-1.67c-0.93,0-1.87,0.25-2.83,0.75c-0.96,0.5-1.88,1.22-2.77,2.15 c-0.89,0.93-1.72,2.04-2.48,3.35c-0.76,1.31-1.42,2.76-1.96,4.36l-1.68,14.91h-5.16l3.54-29.41h2.55c1.16,0,1.74,0.58,1.74,1.74 L345.02,295.08z"></path> <path class="st0" d="M400.09,309.29c-0.7,1.24-1.45,2.36-2.25,3.36c-0.8,1.01-1.65,1.86-2.55,2.57c-0.9,0.71-1.85,1.25-2.84,1.64 c-1,0.39-2.03,0.58-3.09,0.58c-1.16,0-2.21-0.23-3.16-0.68c-0.95-0.45-1.75-1.12-2.42-2s-1.18-1.96-1.55-3.25 c-0.37-1.29-0.55-2.76-0.55-4.42c0-1.74,0.22-3.44,0.65-5.09c0.44-1.65,1.05-3.21,1.86-4.68c0.8-1.47,1.76-2.82,2.89-4.05 c1.12-1.23,2.37-2.29,3.76-3.19c1.38-0.9,2.87-1.59,4.45-2.09s3.25-0.74,4.99-0.74c1.26,0,2.48,0.1,3.67,0.3s2.36,0.56,3.52,1.06 l-3.51,28.42h-2.67c-0.68,0-1.14-0.17-1.38-0.52s-0.36-0.77-0.36-1.28L400.09,309.29z M402.06,291.25 c-0.43-0.1-0.85-0.16-1.26-0.19c-0.42-0.03-0.83-0.04-1.23-0.04c-1.16,0-2.28,0.19-3.36,0.57c-1.08,0.38-2.1,0.9-3.04,1.58 c-0.95,0.68-1.81,1.48-2.58,2.42c-0.77,0.94-1.44,1.97-1.99,3.09c-0.55,1.12-0.98,2.32-1.29,3.58c-0.31,1.27-0.46,2.57-0.46,3.9 c0,4.66,1.49,6.99,4.47,6.99c0.95,0,1.88-0.29,2.78-0.88c0.91-0.59,1.77-1.41,2.6-2.46c0.82-1.05,1.58-2.3,2.28-3.74 c0.7-1.44,1.31-3.02,1.86-4.74L402.06,291.25z"></path> <path class="st0" d="M454.44,291.86l-3.07,25.17h-4.99l3.07-25.17H438.2l-2.96,24.24l-1.36,6c-0.21,0.7-0.53,1.23-0.94,1.61 c-0.42,0.38-0.99,0.57-1.73,0.57h-2.03l3.97-32.42h-11.77l-2.96,24.21l-1.33,6c-0.21,0.7-0.53,1.23-0.94,1.61 c-0.42,0.38-0.99,0.57-1.73,0.57h-2.03l3.94-32.33l-2.87-0.38c-0.39-0.06-0.69-0.19-0.91-0.39c-0.22-0.2-0.31-0.5-0.28-0.88 l0.26-2.03h4.26l0.29-2.41c0.21-1.68,0.63-3.18,1.25-4.48c0.62-1.3,1.4-2.41,2.33-3.31c0.94-0.9,2.02-1.58,3.23-2.04 c1.22-0.46,2.52-0.7,3.92-0.7c1.18,0,2.27,0.19,3.28,0.58l-0.49,2.7c-0.06,0.19-0.15,0.33-0.29,0.41s-0.31,0.13-0.52,0.15 c-0.21,0.02-0.46,0.02-0.74,0.01c-0.28-0.01-0.58-0.01-0.91-0.01c-0.81,0-1.56,0.11-2.25,0.32c-0.69,0.21-1.3,0.57-1.83,1.07 c-0.53,0.5-0.98,1.17-1.33,2.02c-0.36,0.84-0.61,1.89-0.77,3.15l-0.35,2.55h12.01l0.2-1.62c0.21-1.8,0.68-3.44,1.39-4.93 c0.71-1.49,1.66-2.76,2.83-3.83c1.17-1.06,2.57-1.89,4.21-2.48c1.63-0.59,3.48-0.88,5.55-0.88c0.33,0,0.69,0.01,1.07,0.04 s0.77,0.07,1.15,0.12s0.73,0.11,1.07,0.17c0.34,0.07,0.62,0.15,0.86,0.25l-0.49,2.61c-0.04,0.19-0.13,0.33-0.28,0.41 s-0.33,0.13-0.57,0.15s-0.5,0.02-0.81,0c-0.31-0.02-0.67-0.03-1.07-0.03c-3.19,0-5.58,0.7-7.16,2.09c-1.59,1.39-2.55,3.53-2.9,6.41 l-0.2,1.54h16.44l-0.44,3.62H454.44z"></path> <path class="st0" d="M459.48,317.03l5.19-42.72h5.08l-5.19,42.72H459.48z"></path> <path class="st0" d="M481.29,287.66l-3.54,29.38h-5.08l3.54-29.38H481.29z M483.26,278.44c0,0.5-0.1,0.97-0.3,1.41 c-0.2,0.44-0.47,0.82-0.81,1.16c-0.34,0.34-0.73,0.6-1.16,0.8s-0.88,0.29-1.35,0.29c-0.44,0-0.88-0.1-1.31-0.29s-0.8-0.46-1.12-0.8 c-0.32-0.34-0.58-0.72-0.77-1.16c-0.19-0.44-0.29-0.9-0.29-1.41c0-0.5,0.1-0.98,0.29-1.42c0.19-0.44,0.45-0.84,0.78-1.17 c0.33-0.34,0.71-0.61,1.13-0.81c0.42-0.2,0.86-0.3,1.31-0.3c0.46,0,0.91,0.1,1.35,0.29c0.44,0.19,0.82,0.46,1.15,0.8 c0.33,0.34,0.59,0.73,0.8,1.19C483.16,277.45,483.26,277.93,483.26,278.44z"></path> <path class="st0" d="M503.88,309.29c-0.7,1.24-1.45,2.36-2.25,3.36c-0.8,1.01-1.65,1.86-2.55,2.57c-0.9,0.71-1.85,1.25-2.84,1.64 c-1,0.39-2.03,0.58-3.09,0.58c-1.16,0-2.21-0.23-3.16-0.68c-0.95-0.45-1.75-1.12-2.42-2s-1.18-1.96-1.55-3.25 c-0.37-1.29-0.55-2.76-0.55-4.42c0-1.74,0.22-3.44,0.65-5.09c0.44-1.65,1.05-3.21,1.86-4.68c0.8-1.47,1.76-2.82,2.89-4.05 c1.12-1.23,2.37-2.29,3.76-3.19c1.38-0.9,2.87-1.59,4.45-2.09s3.25-0.74,4.99-0.74c1.26,0,2.48,0.1,3.67,0.3s2.36,0.56,3.52,1.06 l-3.51,28.42h-2.67c-0.68,0-1.14-0.17-1.38-0.52s-0.36-0.77-0.36-1.28L503.88,309.29z M505.85,291.25 c-0.43-0.1-0.85-0.16-1.26-0.19c-0.42-0.03-0.83-0.04-1.23-0.04c-1.16,0-2.28,0.19-3.36,0.57c-1.08,0.38-2.1,0.9-3.04,1.58 c-0.95,0.68-1.81,1.48-2.58,2.42c-0.77,0.94-1.44,1.97-1.99,3.09c-0.55,1.12-0.98,2.32-1.29,3.58c-0.31,1.27-0.46,2.57-0.46,3.9 c0,4.66,1.49,6.99,4.47,6.99c0.95,0,1.88-0.29,2.78-0.88c0.91-0.59,1.77-1.41,2.6-2.46c0.82-1.05,1.58-2.3,2.28-3.74 c0.7-1.44,1.31-3.02,1.86-4.74L505.85,291.25z"></path> <path class="st0" d="M517.68,311.5c0-0.12,0-0.27,0-0.45s0.01-0.45,0.04-0.8c0.03-0.35,0.08-0.8,0.15-1.36 c0.07-0.56,0.16-1.29,0.28-2.2l1.8-14.7h-3.28c-0.27,0-0.49-0.09-0.65-0.28c-0.16-0.18-0.23-0.47-0.19-0.86l0.23-2.06l4.52-0.61 l2.2-9.08c0.1-0.29,0.25-0.53,0.45-0.71c0.2-0.18,0.46-0.28,0.77-0.28h2.7l-1.25,10.12h7.71l-0.44,3.74h-7.74l-1.77,14.44 c-0.1,0.79-0.17,1.43-0.23,1.91c-0.06,0.48-0.1,0.87-0.13,1.16s-0.05,0.49-0.06,0.61c-0.01,0.12-0.01,0.2-0.01,0.26 c0,0.99,0.23,1.72,0.7,2.19c0.46,0.47,1.08,0.71,1.86,0.71c0.52,0,0.97-0.07,1.35-0.22s0.71-0.3,1-0.48 c0.29-0.17,0.53-0.33,0.73-0.48c0.19-0.15,0.36-0.22,0.49-0.22c0.17,0,0.3,0.04,0.39,0.12s0.17,0.2,0.25,0.38l1.1,2.46 c-0.95,0.83-2.03,1.48-3.23,1.96c-1.21,0.47-2.42,0.71-3.64,0.71c-1.88,0-3.35-0.51-4.42-1.54 C518.28,314.94,517.72,313.45,517.68,311.5z"></path> <path class="st0" d="M558.4,311.61c-0.99,1.02-1.95,1.9-2.9,2.62c-0.95,0.72-1.91,1.33-2.89,1.81c-0.98,0.48-2,0.84-3.07,1.06 c-1.07,0.22-2.23,0.33-3.47,0.33c-1.68,0-3.19-0.28-4.52-0.84s-2.47-1.36-3.39-2.39c-0.93-1.03-1.64-2.29-2.15-3.76 c-0.5-1.47-0.75-3.11-0.75-4.93c0-1.51,0.16-3.01,0.48-4.51c0.32-1.5,0.78-2.92,1.39-4.28c0.61-1.35,1.35-2.61,2.23-3.77 c0.88-1.16,1.88-2.16,3.02-3c1.13-0.84,2.38-1.5,3.74-1.99c1.36-0.48,2.83-0.73,4.39-0.73c1.49,0,2.77,0.21,3.86,0.64 c1.08,0.43,1.97,0.97,2.67,1.62c0.7,0.66,1.21,1.38,1.55,2.17c0.34,0.79,0.51,1.55,0.51,2.26c0,1.28-0.26,2.45-0.78,3.52 c-0.52,1.07-1.48,2.04-2.87,2.9c-1.39,0.86-3.31,1.61-5.74,2.25c-2.44,0.64-5.57,1.15-9.4,1.54c0,0.21,0,0.42-0.01,0.62 s-0.01,0.41-0.01,0.62c0,2.59,0.57,4.57,1.7,5.93c1.13,1.36,2.84,2.04,5.12,2.04c0.93,0,1.75-0.1,2.48-0.29 c0.72-0.19,1.37-0.43,1.94-0.71c0.57-0.28,1.07-0.59,1.51-0.93c0.44-0.34,0.83-0.65,1.19-0.93c0.36-0.28,0.69-0.52,1-0.71 c0.31-0.19,0.62-0.29,0.93-0.29c0.37,0,0.7,0.16,0.99,0.49L558.4,311.61z M550.22,290.96c-1.22,0-2.34,0.25-3.36,0.75 c-1.03,0.5-1.93,1.19-2.73,2.07c-0.79,0.88-1.47,1.91-2.03,3.1c-0.56,1.19-1,2.47-1.3,3.84c2.98-0.37,5.36-0.79,7.16-1.26 c1.8-0.47,3.18-0.99,4.15-1.54c0.97-0.55,1.6-1.15,1.91-1.78c0.31-0.64,0.46-1.31,0.46-2c0-0.35-0.08-0.71-0.23-1.09 c-0.15-0.38-0.4-0.72-0.74-1.03c-0.34-0.31-0.78-0.57-1.32-0.77C551.65,291.06,550.99,290.96,550.22,290.96z"></path> <path class="st0" d="M591.26,274.32l-5.25,42.72h-2.7c-0.68,0-1.13-0.17-1.36-0.52s-0.35-0.77-0.35-1.28l0.55-6.18 c-0.73,1.28-1.54,2.43-2.41,3.45c-0.87,1.02-1.78,1.9-2.74,2.64s-1.95,1.3-2.99,1.7c-1.03,0.4-2.08,0.59-3.15,0.59 c-2.51,0-4.47-0.91-5.86-2.74s-2.09-4.48-2.09-7.96c0-1.58,0.16-3.17,0.49-4.76c0.33-1.59,0.8-3.1,1.41-4.55s1.34-2.8,2.2-4.05 c0.86-1.25,1.82-2.32,2.89-3.23c1.06-0.91,2.21-1.62,3.44-2.15c1.23-0.52,2.52-0.78,3.87-0.78c1.45,0,2.77,0.29,3.96,0.86 c1.19,0.57,2.2,1.38,3.03,2.42l2-16.18H591.26z M583.77,294.07c-0.73-1.04-1.62-1.77-2.65-2.19c-1.03-0.42-2.08-0.62-3.15-0.62 c-1.53,0-2.9,0.45-4.12,1.36c-1.22,0.91-2.26,2.08-3.12,3.52c-0.86,1.44-1.52,3.05-1.99,4.83c-0.46,1.78-0.7,3.53-0.7,5.25 c0,2.3,0.41,4.06,1.23,5.26c0.82,1.21,2,1.81,3.52,1.81c0.93,0,1.87-0.29,2.81-0.87s1.86-1.39,2.74-2.42 c0.88-1.03,1.7-2.26,2.46-3.67c0.76-1.41,1.43-2.96,1.99-4.64L583.77,294.07z"></path> <path class="st0" d="M626.43,314.51c-0.91,0.73-1.82,1.32-2.73,1.75c-0.91,0.44-1.85,0.74-2.83,0.91s-2.03,0.26-3.15,0.26 c-1.7,0-3.2-0.29-4.51-0.87c-1.31-0.58-2.4-1.4-3.28-2.45c-0.88-1.05-1.55-2.32-2-3.8s-0.68-3.11-0.68-4.89 c0-2.38,0.37-4.66,1.12-6.84c0.74-2.18,1.78-4.12,3.12-5.8c1.33-1.68,2.92-3.03,4.77-4.03c1.85-1.01,3.86-1.51,6.05-1.51 c1.95,0,3.59,0.34,4.9,1.03c1.31,0.69,2.46,1.69,3.45,3l-1.62,1.94c-0.14,0.16-0.29,0.28-0.45,0.38c-0.17,0.1-0.35,0.15-0.57,0.15 c-0.27,0-0.54-0.12-0.8-0.36s-0.6-0.51-1.03-0.81c-0.43-0.3-0.95-0.57-1.58-0.81s-1.44-0.36-2.42-0.36c-1.33,0-2.59,0.36-3.77,1.09 c-1.18,0.72-2.21,1.72-3.1,2.97c-0.89,1.26-1.59,2.75-2.1,4.47c-0.51,1.72-0.77,3.57-0.77,5.54c0,1.2,0.13,2.29,0.41,3.26 c0.27,0.98,0.68,1.81,1.22,2.49c0.54,0.69,1.2,1.22,1.99,1.59c0.78,0.38,1.7,0.57,2.74,0.57c1.29,0,2.38-0.19,3.26-0.58 s1.62-0.81,2.22-1.26c0.6-0.45,1.11-0.87,1.52-1.26c0.42-0.39,0.83-0.58,1.23-0.58c0.37,0,0.7,0.16,0.99,0.49l1.28,1.57 C628.3,312.86,627.34,313.78,626.43,314.51z"></path> <path class="st0" d="M641.57,294.15c1.53-2.28,3.22-4.01,5.09-5.18c1.87-1.17,3.76-1.75,5.7-1.75c1.26,0,2.36,0.25,3.31,0.74 c0.95,0.49,1.71,1.21,2.3,2.16c0.59,0.95,0.99,2.11,1.2,3.49c0.21,1.38,0.21,2.95,0,4.71l-2.2,18.71h-5.16l2.2-18.71 c0.29-2.32,0.15-4.04-0.41-5.16c-0.56-1.12-1.6-1.68-3.13-1.68c-0.87,0-1.77,0.24-2.7,0.71c-0.93,0.47-1.82,1.15-2.68,2.02 c-0.86,0.87-1.67,1.92-2.44,3.16c-0.76,1.24-1.43,2.62-1.99,4.15l-1.88,15.52h-5.13l5.16-42.72h5.16L641.57,294.15z"></path> <path class="st0" d="M682.52,309.29c-0.7,1.24-1.45,2.36-2.25,3.36c-0.8,1.01-1.65,1.86-2.55,2.57c-0.9,0.71-1.85,1.25-2.84,1.64 c-1,0.39-2.03,0.58-3.09,0.58c-1.16,0-2.21-0.23-3.16-0.68c-0.95-0.45-1.75-1.12-2.42-2s-1.18-1.96-1.55-3.25s-0.55-2.76-0.55-4.42 c0-1.74,0.22-3.44,0.65-5.09c0.44-1.65,1.05-3.21,1.86-4.68c0.8-1.47,1.76-2.82,2.89-4.05c1.12-1.23,2.37-2.29,3.75-3.19 c1.38-0.9,2.87-1.59,4.45-2.09c1.59-0.49,3.25-0.74,4.99-0.74c1.26,0,2.48,0.1,3.67,0.3c1.19,0.2,2.36,0.56,3.52,1.06l-3.51,28.42 h-2.67c-0.68,0-1.14-0.17-1.38-0.52c-0.24-0.35-0.36-0.77-0.36-1.28L682.52,309.29z M684.49,291.25c-0.42-0.1-0.85-0.16-1.26-0.19 c-0.42-0.03-0.83-0.04-1.23-0.04c-1.16,0-2.28,0.19-3.36,0.57c-1.08,0.38-2.1,0.9-3.04,1.58c-0.95,0.68-1.81,1.48-2.58,2.42 c-0.77,0.94-1.44,1.97-1.99,3.09c-0.55,1.12-0.98,2.32-1.29,3.58c-0.31,1.27-0.46,2.57-0.46,3.9c0,4.66,1.49,6.99,4.47,6.99 c0.95,0,1.88-0.29,2.78-0.88c0.91-0.59,1.77-1.41,2.6-2.46c0.82-1.05,1.58-2.3,2.28-3.74c0.7-1.44,1.31-3.02,1.86-4.74 L684.49,291.25z"></path> <path class="st0" d="M701.37,295.63c0.73-1.28,1.54-2.43,2.41-3.47c0.87-1.03,1.79-1.92,2.75-2.65c0.97-0.73,1.97-1.3,3-1.7 s2.09-0.59,3.18-0.59c2.51,0,4.46,0.91,5.84,2.73c1.38,1.82,2.07,4.48,2.07,7.98c0,1.59-0.17,3.17-0.49,4.76 c-0.33,1.59-0.8,3.1-1.41,4.54c-0.61,1.44-1.34,2.78-2.2,4.03c-0.86,1.25-1.82,2.33-2.87,3.25c-1.05,0.92-2.2,1.64-3.44,2.16 s-2.53,0.78-3.89,0.78c-1.45,0-2.77-0.29-3.94-0.86c-1.18-0.57-2.18-1.38-3.02-2.42l-1.57,12.82h-5.02l4.78-39.35h2.55 c1.16,0,1.74,0.58,1.74,1.74L701.37,295.63z M699.8,310.6c0.73,1.02,1.61,1.75,2.64,2.19s2.07,0.65,3.13,0.65 c1,0,1.95-0.21,2.84-0.64c0.89-0.43,1.7-1,2.44-1.73s1.39-1.58,1.97-2.55c0.58-0.98,1.07-2.02,1.46-3.13 c0.4-1.11,0.7-2.26,0.91-3.45c0.21-1.19,0.32-2.36,0.32-3.52c0-2.3-0.42-4.05-1.25-5.25c-0.83-1.2-2-1.8-3.51-1.8 c-0.93,0-1.87,0.29-2.81,0.86c-0.95,0.57-1.86,1.37-2.74,2.39c-0.88,1.02-1.7,2.24-2.46,3.65c-0.76,1.41-1.43,2.96-1.99,4.64 L699.8,310.6z"></path> <path class="st0" d="M726.74,311.5c0-0.12,0-0.27,0-0.45s0.01-0.45,0.04-0.8c0.03-0.35,0.08-0.8,0.14-1.36 c0.07-0.56,0.16-1.29,0.28-2.2l1.8-14.7h-3.28c-0.27,0-0.49-0.09-0.65-0.28c-0.16-0.18-0.23-0.47-0.19-0.86l0.23-2.06l4.52-0.61 l2.2-9.08c0.1-0.29,0.25-0.53,0.45-0.71c0.2-0.18,0.46-0.28,0.77-0.28h2.7l-1.25,10.12h7.71l-0.44,3.74h-7.74l-1.77,14.44 c-0.1,0.79-0.17,1.43-0.23,1.91c-0.06,0.48-0.1,0.87-0.13,1.16c-0.03,0.29-0.05,0.49-0.06,0.61c-0.01,0.12-0.01,0.2-0.01,0.26 c0,0.99,0.23,1.72,0.7,2.19c0.46,0.47,1.08,0.71,1.86,0.71c0.52,0,0.97-0.07,1.35-0.22s0.71-0.3,1-0.48 c0.29-0.17,0.53-0.33,0.73-0.48c0.19-0.15,0.36-0.22,0.49-0.22c0.17,0,0.3,0.04,0.39,0.12s0.17,0.2,0.25,0.38l1.1,2.46 c-0.95,0.83-2.03,1.48-3.23,1.96s-2.42,0.71-3.64,0.71c-1.88,0-3.35-0.51-4.42-1.54C727.34,314.94,726.78,313.45,726.74,311.5z"></path> <path class="st0" d="M767.46,311.61c-0.99,1.02-1.95,1.9-2.9,2.62c-0.95,0.72-1.91,1.33-2.89,1.81s-2,0.84-3.07,1.06 c-1.07,0.22-2.23,0.33-3.46,0.33c-1.68,0-3.19-0.28-4.52-0.84s-2.46-1.36-3.39-2.39c-0.93-1.03-1.64-2.29-2.15-3.76 c-0.5-1.47-0.75-3.11-0.75-4.93c0-1.51,0.16-3.01,0.48-4.51c0.32-1.5,0.78-2.92,1.39-4.28c0.61-1.35,1.35-2.61,2.23-3.77 c0.88-1.16,1.88-2.16,3.02-3c1.13-0.84,2.38-1.5,3.74-1.99c1.36-0.48,2.83-0.73,4.39-0.73c1.49,0,2.77,0.21,3.86,0.64 c1.08,0.43,1.97,0.97,2.67,1.62c0.7,0.66,1.21,1.38,1.55,2.17c0.34,0.79,0.51,1.55,0.51,2.26c0,1.28-0.26,2.45-0.78,3.52 c-0.52,1.07-1.48,2.04-2.87,2.9c-1.39,0.86-3.31,1.61-5.74,2.25c-2.44,0.64-5.57,1.15-9.4,1.54c0,0.21,0,0.42-0.01,0.62 s-0.01,0.41-0.01,0.62c0,2.59,0.57,4.57,1.7,5.93c1.13,1.36,2.84,2.04,5.12,2.04c0.93,0,1.75-0.1,2.48-0.29s1.37-0.43,1.94-0.71 c0.57-0.28,1.07-0.59,1.51-0.93c0.43-0.34,0.83-0.65,1.19-0.93c0.36-0.28,0.69-0.52,1-0.71c0.31-0.19,0.62-0.29,0.93-0.29 c0.37,0,0.7,0.16,0.99,0.49L767.46,311.61z M759.28,290.96c-1.22,0-2.34,0.25-3.36,0.75c-1.03,0.5-1.93,1.19-2.73,2.07 c-0.79,0.88-1.47,1.91-2.03,3.1s-1,2.47-1.3,3.84c2.98-0.37,5.37-0.79,7.16-1.26c1.8-0.47,3.18-0.99,4.15-1.54 c0.97-0.55,1.61-1.15,1.91-1.78c0.31-0.64,0.46-1.31,0.46-2c0-0.35-0.08-0.71-0.23-1.09c-0.16-0.38-0.4-0.72-0.74-1.03 c-0.34-0.31-0.78-0.57-1.32-0.77C760.71,291.06,760.05,290.96,759.28,290.96z"></path> <path class="st0" d="M779.46,295.84c0.77-1.64,1.61-3.07,2.51-4.28c0.9-1.21,1.84-2.16,2.83-2.84c0.99-0.69,2-1.1,3.04-1.25 s2.11,0.01,3.19,0.48l-0.93,4.96c-2.51-1-4.73-0.64-6.66,1.1c-1.92,1.74-3.49,4.88-4.68,9.42l-1.62,13.6h-5.05l3.54-29.41h2.55 c1.18,0,1.77,0.58,1.77,1.74L779.46,295.84z"></path> <path class="st0" d="M815.34,317.44c-1.61,0-3.07-0.28-4.41-0.83c-1.33-0.55-2.48-1.35-3.45-2.39s-1.72-2.32-2.26-3.83 c-0.54-1.51-0.81-3.23-0.81-5.16c0-2.47,0.39-4.8,1.16-6.99c0.77-2.18,1.84-4.09,3.19-5.73c1.35-1.63,2.94-2.92,4.77-3.87 c1.83-0.95,3.79-1.42,5.9-1.42c1.6,0,3.07,0.28,4.41,0.83c1.33,0.55,2.48,1.35,3.45,2.39c0.97,1.04,1.72,2.32,2.26,3.83 c0.54,1.51,0.81,3.22,0.81,5.13c0,2.46-0.39,4.78-1.16,6.96c-0.77,2.19-1.83,4.1-3.17,5.74c-1.34,1.64-2.93,2.94-4.77,3.9 C819.42,316.96,817.44,317.44,815.34,317.44z M815.83,313.41c1.41,0,2.69-0.39,3.84-1.16c1.15-0.77,2.14-1.8,2.96-3.09 c0.82-1.29,1.46-2.77,1.9-4.45c0.45-1.68,0.67-3.44,0.67-5.28c0-2.71-0.54-4.74-1.61-6.1s-2.62-2.04-4.62-2.04 c-1.43,0-2.72,0.38-3.87,1.15s-2.13,1.78-2.94,3.06c-0.81,1.28-1.44,2.75-1.88,4.44c-0.45,1.68-0.67,3.44-0.67,5.28 c0,2.71,0.53,4.75,1.59,6.13C812.25,312.72,813.8,313.41,815.83,313.41z"></path> <path class="st0" d="M843.61,291.95l-2.93,24.13l-1.36,6c-0.21,0.7-0.53,1.23-0.94,1.61c-0.42,0.38-0.99,0.57-1.73,0.57h-2 l3.89-32.22l-2.9-0.38c-0.35-0.1-0.62-0.24-0.83-0.44c-0.2-0.19-0.29-0.49-0.25-0.9l0.26-2.09H839l0.35-2.84 c0.21-1.68,0.63-3.18,1.26-4.48c0.63-1.3,1.42-2.41,2.38-3.31c0.96-0.9,2.05-1.58,3.28-2.04c1.23-0.46,2.56-0.7,3.99-0.7 c1.18,0,2.27,0.19,3.28,0.58l-0.49,2.67c-0.08,0.39-0.34,0.58-0.78,0.58c-0.45,0-1.01,0-1.68,0c-0.83,0-1.6,0.12-2.31,0.36 c-0.71,0.24-1.33,0.63-1.87,1.17c-0.54,0.54-1,1.25-1.38,2.12s-0.64,1.93-0.8,3.19l-0.32,2.7h7.34l-0.49,3.71H843.61z"></path> </g> <g> <path class="st0" d="M1139.72,184.67c-0.73-0.07-1.81,0.54-2.12,0.74c-0.23,0.19-0.49,0.6-0.57,0.8c0.07,0.26-0.43,0.59-0.28,0.88 c-2.11,2.62-12.15,15.07-12.7,15.73c-0.08,0.51-1.31,3.02-0.05,1.07c0.02,1.09-1.52,2.26-2.12,3.38c1.6-1.14,2.27-2.87,3.78-4.06 c-3.04,4.06-6.27,8.02-9.61,11.89l0.22,0.16c0.18-0.01,0.66-0.19,0.83-0.35c4.17-4.04,10.16-12.15,14-17.21 c-0.64,1.74-2.03,3.43-3.23,5.15c-1.19,1.71-2.65,3.32-3.91,4.85c3.32-3.35,6.85-7.79,9.69-11.5c-0.49,1.53-1.56,2.99-2.61,4.55 c0.7-0.35,2.17-2.83,3.2-3.93c0.41-0.45,1.03-1.04,1.14-1.02c0.61,0.11-0.5,0.95-0.46,1.32c0.62-0.68,0.96-1.54,1.8-2.08 c-2.1,2.87-3.78,5.7-5.49,8.57c2.11-1.85,4.24-4.46,6.31-6.81C1150.37,185.13,1139.81,184.67,1139.72,184.67L1139.72,184.67z M1112.22,231.79c-12.86,16.09-34.53,44.54-58.14,44.54c-23.48,0-37.64-17.79-33.19-47.1c2.53-16.68,1.95-26.67-8.69-26.67 c-13.21,0-32.53,14.17-40.21,35.74c-0.3,0.85,0.34,1.15,1.45,0.74c5.78-2.13,21.13-7.62,31.4-1.69l-1.07,0.89 c-1.59-0.41-3.36-0.78-4.9-0.96l-1.13,0.72c-10.26-0.62-21.27,3.07-29.77,10.52c7.41-5.57,16.05-8.33,24.08-8.35l1.2,0.45 c-5.32,0.52-16.69,3.88-26.89,13.12c-4.47,4.05-15.32,12.49-19.68,11.94c-7.02-0.89-3.87-10.72,1.13-20.29 c25.55-49.01,55.66-60.73,68.74-60.73c14.15,0,24.77,10.1,20.07,45.41c-1.4,10.5-2.66,31.89,17.93,31.89 c15.06,0,33.43-19.04,44.13-31.39l-0.26,0.1c0.72-0.81,1.44-1.64,2.16-2.49c-0.09,0.48-1.38,2.88-0.09,1.04 c-0.02,1.05-1.56,2.14-2.16,3.2c1.59-1.05,2.29-2.7,3.8-3.8c-3.29,4.1-6.8,8.07-10.41,11.96c0.43,0.04,0.48-0.36,0.87-0.67 c0.15,0.1,0.62-0.04,0.85-0.25c4.18-3.76,10.25-11.41,14.13-16.18c-0.68,1.66-2.08,3.26-3.3,4.88c-1.21,1.61-2.68,3.12-3.94,4.57 c3.32-3.13,6.88-7.31,9.75-10.8c-0.52,1.47-1.61,2.85-2.67,4.32c0.68-0.32,2.19-2.66,3.23-3.69c0.42-0.42,1.03-0.97,1.14-0.95 c0.58,0.12-0.51,0.9-0.49,1.26c0.62-0.64,0.98-1.46,1.81-1.96c-2.13,2.71-3.84,5.39-5.6,8.1c2.44-1.99,4.95-4.99,7.34-7.42 c-1.41,4.32-4.79,8.37-7.93,11.92c0.04,0.55,0,0.56-0.07,1.18c-3.26,3.57-4.81,6.05-7.78,9.7c0.16-0.18,0.38-0.32,0.48-0.53 c-0.5,1.26-1.6,2.31-2.56,3.42c-2.26,2.61-4.9,5.29-7.31,7.97l0.12,0.13c8.73-8.67,16.5-17.99,24.58-27.11 c0.09,0.92-1.44,1.8-1.96,2.72C1112.13,231.24,1112.4,231.66,1112.22,231.79L1112.22,231.79z"></path> <path class="st0" d="M1044.93,313.05h0.53c0.4,0,0.75,0.15,0.75,0.55c0,0.28-0.16,0.71-0.93,0.71h-0.35V313.05L1044.93,313.05z M1044.35,315.98h0.59v-1.35h0.65l1.01,1.41l0.6-0.14l-1.07-1.39c0.41-0.19,0.72-0.47,0.72-0.94c0-0.56-0.56-0.84-1.26-0.84h-1.24 V315.98L1044.35,315.98z M1045.59,311.87c-1.43,0-2.59,1.16-2.59,2.59c0,1.43,1.16,2.59,2.59,2.59s2.59-1.16,2.59-2.59 C1048.18,313.03,1047.02,311.87,1045.59,311.87L1045.59,311.87z M1048.64,314.46c0,1.68-1.36,3.05-3.05,3.05 c-1.68,0-3.05-1.36-3.05-3.05c0-1.68,1.36-3.05,3.05-3.05C1047.27,311.41,1048.64,312.78,1048.64,314.46L1048.64,314.46z M1040.51,314.32c-3.31,2.28-5.76,3.19-8.95,3.19c-7.41,0-11.97-5.24-11.97-12.54c0-8.21,6.16-17.33,16.08-17.33 c3.19,0,5.82,1.25,7.64,3.31l-2.85,3.53c-1.14-0.68-2.62-1.77-5.02-1.77c-4.68,0-8.55,4.96-8.55,12.14c0,4.22,2.11,7.58,5.82,7.58 c2.96,0,4.16-1.2,5.64-2L1040.51,314.32L1040.51,314.32z M1011.43,293.22l0.11,0.12l1.83-2.22c1.03-1.2,2.96-3.48,5.07-3.48 c1.54,0,3.02,0.91,3.88,2.05l-3.65,5.36c-0.68-0.23-1.31-0.57-2.68-0.57c-2.39,0-5.07,2.11-6.21,8.27l-2.68,14.08h-6.78l5.3-28.5 h6.78L1011.43,293.22L1011.43,293.22z M987.72,301.38c-0.57-4.9-1.2-9.86-1.37-16.36h-0.11c-2.85,6.5-5.41,11.46-7.98,16.36H987.72 L987.72,301.38z M991.19,276.92l6.04,39.91h-7.64l-1.31-10.89H975.8l-5.76,10.89h-6.5l22.12-39.91H991.19L991.19,276.92z M945.53,294.59c0.11-1.83-0.8-2.62-2.62-2.62c-3.08,0-6.39,3.88-7.92,9.12C940.34,300.64,945.3,298.24,945.53,294.59 L945.53,294.59z M948.32,313.52c-4.62,3.42-9.29,3.99-12.37,3.99c-5.3,0-8.84-4.33-8.84-11.17c0-7.98,6.33-18.7,17.56-18.7 c3.19,0,7.18,1.82,7.18,5.93c0,7.41-11.23,11.29-17.5,11.52c-0.34,2.28-0.11,7.24,4.85,7.35c1.82,0.06,4.56-0.74,7.18-2.68 L948.32,313.52L948.32,313.52z M906.48,293.68l0.34,0.11c4.33-4.79,7.92-6.16,11.63-6.16c3.82,0,5.99,1.82,5.99,6.56 c0,1.65-0.23,3.7-0.74,6.21l-3.36,16.42h-6.78l3.31-16.36c0.34-1.65,0.51-2.91,0.51-3.93c0.17-3.08-1.2-3.88-3.08-3.88 c-3.25,0-8.61,6.56-10.09,14.65l-1.71,9.52h-6.84l7.87-41.9h6.84L906.48,293.68L906.48,293.68z M873.02,316.83l6.5-34.83h-11.06 l0.97-5.08h29.42l-0.97,5.08h-11.12l-6.5,34.83H873.02L873.02,316.83z"></path> </g> </svg> 