<svg xmlns="http://www.w3.org/2000/svg" width="63.463" height="55" viewBox="0 0 63.463 55"><defs><style>.a{fill:#007fa3;}</style></defs><path class="a" d="M67.272,38.874A18.123,18.123,0,0,0,64.19,15.327a22.116,22.116,0,0,0-25.023-3.113,22.582,22.582,0,0,0-26.124,2.842,18.579,18.579,0,0,0,0,27.742l6.237,5.751a5.281,5.281,0,0,0,3.6,1.353h.073v.068a4.678,4.678,0,0,0,1.468,3.383,5.281,5.281,0,0,0,3.6,1.353h.073v.068a4.247,4.247,0,0,0,1.541,3.316,5.407,5.407,0,0,0,3.6,1.421H33.3v.068a4.422,4.422,0,0,0,1.468,3.316,5.407,5.407,0,0,0,3.6,1.421,4.973,4.973,0,0,0,3.6-1.421l7.265-6.7a4.639,4.639,0,0,0,1.541-3.383v-.068h.073a5.211,5.211,0,0,0,3.6-1.353,4.639,4.639,0,0,0,1.541-3.383v-.068h.073a5.674,5.674,0,0,0,3.669-1.353A4.261,4.261,0,0,0,61.182,43.2h.073a5.674,5.674,0,0,0,3.669-1.353,7.347,7.347,0,0,0,.66-.744,18.656,18.656,0,0,0,1.688-2.233Zm-5.21-21.585a15.529,15.529,0,0,1,3.6,18.607l-.734-.677-7.338-6.7-9.98-9.27a1.547,1.547,0,0,0-1.908-.135L33.077,27.845a2.721,2.721,0,0,1-3.3-.2,2.2,2.2,0,0,1-.073-3.248l6.531-6.563A20.649,20.649,0,0,1,39.9,14.989a18.911,18.911,0,0,1,22.161,2.3Zm-40.8,29.366a1.858,1.858,0,0,1,0-2.842l7.265-6.7a2.406,2.406,0,0,1,3.082,0,1.858,1.858,0,0,1,0,2.842l-7.265,6.7a2.254,2.254,0,0,1-3.082,0Zm5.21,4.8a1.878,1.878,0,0,1-.66-1.421,1.779,1.779,0,0,1,.66-1.421l7.265-6.7a2.406,2.406,0,0,1,3.082,0,1.878,1.878,0,0,1,.66,1.421,1.779,1.779,0,0,1-.66,1.421l-7.265,6.7a2.254,2.254,0,0,1-3.082,0Zm5.21,4.8a1.878,1.878,0,0,1-.66-1.421,1.779,1.779,0,0,1,.66-1.421l7.265-6.7a2.2,2.2,0,0,1,1.541-.609,2.081,2.081,0,0,1,1.541.609,1.858,1.858,0,0,1,0,2.842l-7.265,6.7a2.406,2.406,0,0,1-3.082,0ZM47.9,52.88a1.779,1.779,0,0,1-.66,1.421L39.975,61a2.406,2.406,0,0,1-3.082,0,1.878,1.878,0,0,1-.66-1.421,1.779,1.779,0,0,1,.66-1.421l7.265-6.7a2.254,2.254,0,0,1,3.082,0,1.878,1.878,0,0,1,.66,1.421ZM59.714,39.957,46.726,27.98a1.5,1.5,0,0,0-2.055,0,1.239,1.239,0,0,0,0,1.895L57.586,41.919a1.858,1.858,0,0,1,0,2.842,2.254,2.254,0,0,1-3.082,0L41.516,32.784a1.5,1.5,0,0,0-2.055,0,1.239,1.239,0,0,0,0,1.895L52.449,46.655a1.878,1.878,0,0,1,.66,1.421,1.779,1.779,0,0,1-.66,1.421,2.406,2.406,0,0,1-3.082,0A5.034,5.034,0,0,0,45.7,48.144a4.794,4.794,0,0,0-1.468-3.383,5.452,5.452,0,0,0-3.669-1.421h-.073v-.068a4.422,4.422,0,0,0-1.468-3.316,5.452,5.452,0,0,0-3.669-1.421h-.073a4.794,4.794,0,0,0-1.468-3.383,5.5,5.5,0,0,0-7.265,0l-7.265,6.7a4.4,4.4,0,0,0-1.174,1.759L15.172,40.9a16.1,16.1,0,0,1,0-23.953,19.6,19.6,0,0,1,21.354-3.045,16.846,16.846,0,0,0-2.422,2.03l-6.6,6.631a4.768,4.768,0,0,0,.147,6.969,5.922,5.922,0,0,0,7.191.474l11.594-8.052L62.8,37.047a1.853,1.853,0,0,1,.367,2.368c-.147.135-.294.338-.44.474a.068.068,0,0,1-.073.068,2.137,2.137,0,0,1-2.935,0Z" transform="translate(-6.825 -9.315)"/></svg>