<svg width="28px" height="28px" viewBox="0 0 28 28" version="1.1" xmlns="http://www.w3.org/2000/svg" xmlns:xlink="http://www.w3.org/1999/xlink">
    <g id="Home" stroke="none" stroke-width="1" fill="none" fill-rule="evenodd">
        <g id="Home-V1" transform="translate(-830.000000, -796.000000)" fill="#FFFFFF" fill-rule="nonzero">
            <g id="home" transform="translate(-1.000000, 76.000000)">
                <g id="news-+-events" transform="translate(1.000000, 539.000000)">
                    <g id="news" transform="translate(29.000000, 73.000000)">
                        <g id="event-item" transform="translate(488.000000, 89.000000)">
                            <g id="badge" transform="translate(301.000000, 14.000000)">
                                <g id="election-event-on-a-calendar-with-star-symbol-(1)" transform="translate(12.000000, 5.000000)">
                                    <path d="M11.3989131,18.0967242 L10.9818036,20.6784781 C10.9249548,21.0314434 11.0639187,21.3871326 11.341193,21.5977768 C11.618903,21.8079671 11.9876583,21.8361135 12.2910701,21.6704128 L14.5184131,20.4587544 L16.7457561,21.6706398 C16.8775322,21.7419138 17.0219414,21.7777778 17.1648259,21.7777778 C17.3519262,21.7777778 17.5385909,21.7167182 17.6960688,21.5980038 C17.973561,21.3873596 18.1129605,21.0316704 18.055676,20.6787051 L17.6390021,18.0969512 L19.4324641,16.2635745 C19.6777201,16.0132074 19.7650626,15.6395863 19.6598596,15.2995592 C19.5542209,14.9597592 19.2715012,14.7109811 18.9321505,14.658774 L16.4469184,14.2747114 L15.3275838,11.9301592 C15.175769,11.6101071 14.8612488,11.4074074 14.5181953,11.4074074 C14.1757952,11.4074074 13.8614928,11.6101071 13.7083712,11.9301592 L12.5901256,14.2747114 L10.1048935,14.658547 C9.76488935,14.7107541 9.48347656,14.9595322 9.37762005,15.2993323 C9.27176353,15.6393593 9.35888824,16.0134344 9.6045799,16.2633475 L11.3989131,18.0967242 Z" id="Path"></path>
                                    <path d="M25.1751817,2.97668531 L22.1976705,2.97668531 L22.1976705,1.3509382 C22.1976705,0.604803948 21.5832526,0 20.8250299,0 L20.6073856,0 C19.8493908,0 19.2352008,0.604803948 19.2352008,1.3509382 L19.2352008,2.97668531 L8.72970267,2.97668531 L8.72970267,1.3509382 C8.72970267,0.604803948 8.11528475,0 7.35751785,0 L7.13964562,0 C6.38165081,0 5.76746079,0.604803948 5.76746079,1.3509382 L5.76746079,2.97668531 L2.82459039,2.97668531 C1.26735091,2.97668531 0,4.22375695 0,5.75707853 L0,25.2196068 C0,26.752031 1.26735091,28 2.82459039,28 L25.1754096,28 C26.7324212,28 28,26.7522554 28,25.2196068 L28,5.75707853 C28,4.22375695 26.7321933,2.97668531 25.1751817,2.97668531 Z M24.8066677,24.856859 L3.1931044,24.856859 L3.1931044,9.70647524 L24.8066677,9.70647524 L24.8066677,24.856859 Z" id="Shape"></path>
                                </g>
                            </g>
                        </g>
                    </g>
                </g>
            </g>
        </g>
    </g>
</svg>