<svg width="69px" height="61px" viewBox="0 0 69 61" version="1.1" xmlns="http://www.w3.org/2000/svg" xmlns:xlink="http://www.w3.org/1999/xlink">
    <defs>
        <polygon id="path-1" points="8.63926941e-05 0.594694227 38.2124389 0.594694227 38.2124389 47.4331538 8.63926941e-05 47.4331538"></polygon>
    </defs>
    <g id="Symbols" stroke="none" stroke-width="1" fill="none" fill-rule="evenodd">
        <g id="LC-logo-icon">
            <g id="logo">
                <path d="M62.8478778,44.9424508 L69,54.2217852 L68.1616402,54.8133132 C67.5543135,54.2454463 67.056278,53.9670802 66.668917,53.9670802 C66.2829395,53.9670802 65.1900282,54.486233 63.3998672,55.5342814 C59.6881191,57.6777005 56.5726302,59.134947 54.032649,59.8795764 C51.5023518,60.6242057 48.48647,61 44.9836202,61 C38.0235737,61 32.3016989,59.3465053 27.8373637,56.0228139 C25.1977754,54.0881694 23.1336949,51.6886536 21.6188368,48.8228744 C19.8729456,45.5520726 19,41.9305295 19,37.983298 C19,32.6052648 20.5701953,27.9259304 23.6953683,23.9592133 C28.401804,17.989652 35.504344,15 45.0195894,15 C48.5210558,15 51.5134193,15.3674433 54.0201981,16.1120726 C56.5159095,16.8441755 59.6438493,18.3028139 63.3998672,20.4671104 C65.1900282,21.4928896 66.2829395,21.9897731 66.668917,21.9897731 C67.056278,21.9897731 67.5543135,21.7155825 68.1616402,21.1463238 L69,21.7350681 L62.8478778,31.0157943 L61.9749322,30.4256581 C62.019202,30.0818759 62.0413369,29.7923752 62.0413369,29.5488048 C62.0413369,28.9252648 61.7771014,28.3267776 61.2347961,27.7825719 C60.6924907,27.2258396 59.7323889,26.557761 58.3517238,25.7797277 C54.5403685,23.6126475 50.4952133,22.5256278 46.2231753,22.5256278 C41.1736484,22.5256278 37.1506281,23.7908018 34.1471972,26.3364599 C30.6125284,29.3038427 28.8445022,33.1940091 28.8445022,37.983298 C28.8445022,42.7753707 30.6125284,46.6627534 34.1471972,49.6329198 C37.1506281,52.1771861 41.1736484,53.4423601 46.2231753,53.4423601 C50.4952133,53.4423601 54.5403685,52.3553404 58.3517238,50.189652 C59.7323889,49.4116188 60.6924907,48.7407564 61.2347961,48.1868079 C61.7771014,47.6300756 62.0413369,47.044115 62.0413369,46.4094402 C62.0413369,46.1770045 62.019202,45.886112 61.9749322,45.5632073 L62.8478778,44.9424508 Z" id="Fill-1" fill="#0373AF"></path>
                <g id="Group-14">
                    <mask id="mask-2" fill="white">
                        <use xlink:href="#path-1"></use>
                    </mask>
                    <g id="Clip-13"></g>
                    <path d="M32.1597668,47.4331538 C31.6681923,46.8752536 30.9632279,46.6664689 30.2599914,46.5261382 C29.5567549,46.4559728 28.7818124,46.4559728 28.0785759,46.4559728 L8.63926941e-05,46.4559728 L8.63926941e-05,45.8287629 C4.15211927,45.062078 4.57457954,41.7172438 4.57457954,38.3022443 L4.57457954,9.72440577 C4.57457954,5.89183679 4.50373753,1.84877172 8.63926941e-05,1.22156184 L8.63926941e-05,0.594351957 L16.8889942,0.594351957 L16.8889942,1.22156184 C12.3862069,1.63913131 12.3153649,5.33393659 12.3153649,9.23667094 L12.3153649,35.7925491 C12.3153649,37.0478246 12.3153649,39.7663045 12.5970051,40.8812492 C13.3002416,42.7628789 15.7632974,43.2506137 17.5231165,43.2506137 C26.670375,43.2506137 33.7796298,37.7434885 37.5783165,29.7985447 L38.2124389,30.1476602 L32.1597668,47.4331538 Z" id="Fill-12" fill="#B20838" mask="url(#mask-2)"></path>
                </g>
            </g>
        </g>
    </g>
</svg>