<svg width="24px" height="24px" viewBox="0 0 24 24" version="1.1" xmlns="http://www.w3.org/2000/svg" xmlns:xlink="http://www.w3.org/1999/xlink">
    <g id="Home" stroke="none" stroke-width="1" fill="none" fill-rule="evenodd">
        <g id="Home-V1" transform="translate(-341.000000, -799.000000)" fill="#FFFFFF" fill-rule="nonzero">
            <g id="home" transform="translate(-1.000000, 76.000000)">
                <g id="news-+-events" transform="translate(1.000000, 539.000000)">
                    <g id="news" transform="translate(29.000000, 73.000000)">
                        <g id="news-item" transform="translate(0.000000, 89.000000)">
                            <g id="badge" transform="translate(300.000000, 14.000000)">
                                <g id="megaphone" transform="translate(12.000000, 8.000000)">
                                    <path d="M11.7073171,15.0412602 L11.7073171,5.85365854 C11.4541463,5.87774927 11.2039024,5.91840237 10.9492683,5.93044773 L3.65853659,5.93044773 C3.25463415,5.93044773 2.92682927,6.26771794 2.92682927,6.68328301 L2.92682927,7.43611828 L0.731707317,7.43611828 C0.327804878,7.43611828 0,7.77338849 0,8.18895356 L0,12.7059652 C0,13.1215303 0.327804878,13.4588005 0.731707317,13.4588005 L2.92682927,13.4588005 L2.92682927,14.2116358 C2.92682927,14.6272008 3.25463415,14.964471 3.65853659,14.964471 L4.10195122,14.964471 L7.04341463,23.0318538 C7.22341463,23.5151741 7.62585366,23.8659953 8.1204878,23.9683809 C8.21853659,23.9894603 8.31658537,24 8.41317073,24 C8.80390244,24 9.17560976,23.8403989 9.44195122,23.5543215 L11.1995122,21.7610679 C11.6487805,21.298827 11.7556098,20.5776108 11.4687805,20.0190071 L9.01317073,14.964471 L10.9565854,14.964471 C11.2082927,14.9765164 11.4570732,15.0171695 11.7073171,15.0412602 Z" id="Path"></path>
                                    <path d="M23.8765714,0.364264808 C23.8615192,0.338675958 23.8479721,0.317602787 23.8284042,0.293519164 C23.7456167,0.18815331 23.6417561,0.102355401 23.5138118,0.0526829268 C23.5092962,0.0511777003 23.5062857,0.0451567944 23.50177,0.0436515679 C23.4867178,0.0391358885 23.4731707,0.0466620209 23.4581185,0.0421463415 C23.3903833,0.0225783972 23.3226481,0 23.2473868,0 C23.1962091,0 23.1510523,0.0195679443 23.1013798,0.0301045296 C23.0727805,0.0361254355 23.0456864,0.037630662 23.0170871,0.0466620209 C22.8876376,0.0888083624 22.7762509,0.161059233 22.6874425,0.260404181 C22.6814216,0.266425087 22.6723902,0.267930314 22.6663693,0.27395122 C20.3197213,3.12334495 17.0473589,5.02896167 13.4634146,5.72738676 L13.4634146,15.3472892 C17.0473589,16.0457143 20.3197213,17.9498258 22.6663693,20.7992195 C22.6723902,20.8067456 22.6829268,20.8097561 22.690453,20.8187875 C22.7431359,20.8774913 22.8078606,20.9241533 22.877101,20.9632892 C22.8996794,20.9768362 22.9177422,20.9964042 22.9403206,21.0069408 C23.0351498,21.0475819 23.1375052,21.0731707 23.2473868,21.0731707 C23.3331847,21.0731707 23.4174774,21.0581185 23.50177,21.0295192 C23.5062857,21.0280139 23.5092962,21.021993 23.5138118,21.0204878 C23.6417561,20.9708153 23.7456167,20.8865226 23.8284042,20.7796516 C23.8464669,20.7555679 23.8600139,20.7344948 23.8765714,20.7089059 C23.9488223,20.5930035 24,20.4650592 24,20.3205575 L24,0.75261324 C24,0.608111498 23.9488223,0.480167247 23.8765714,0.364264808 Z" id="Path"></path>
                                </g>
                            </g>
                        </g>
                    </g>
                </g>
            </g>
        </g>
    </g>
</svg>